<svg width="10" height="14" viewBox="0 0 10 14" fill="none" xmlns="http://www.w3.org/2000/svg">
<g clip-path="url(#clip0_54_330)">
<path d="M4.3821 13.1953C4.3821 13.138 4.35133 12.987 4.28977 12.7422C4.22822 12.4974 4.15483 12.2188 4.0696 11.9062C3.98438 11.5938 3.93703 11.4141 3.92756 11.3672C3.92282 11.3464 3.91098 11.2773 3.89205 11.1602C3.87311 11.043 3.85298 10.9492 3.83168 10.8789C3.81037 10.8086 3.77841 10.7526 3.7358 10.7109C3.66477 10.638 3.54403 10.6016 3.37358 10.6016C3.26468 10.6016 3.09896 10.6159 2.87642 10.6445C2.65388 10.6732 2.4858 10.6875 2.37216 10.6875C2.21117 10.6875 2.09991 10.6589 2.03835 10.6016C2.00994 10.5755 1.9839 10.5352 1.96023 10.4805C1.93655 10.4258 1.9188 10.3737 1.90696 10.3242C1.89512 10.2747 1.87973 10.2122 1.8608 10.1367C1.84186 10.0612 1.83002 10.013 1.82528 9.99219C1.65009 9.32552 1.5625 8.66146 1.5625 8C1.5625 7.33854 1.65009 6.67448 1.82528 6.00781C1.83002 5.98698 1.84186 5.9388 1.8608 5.86328C1.87973 5.78776 1.89512 5.72526 1.90696 5.67578C1.9188 5.6263 1.93655 5.57422 1.96023 5.51953C1.9839 5.46484 2.00994 5.42448 2.03835 5.39844C2.09991 5.34115 2.21117 5.3125 2.37216 5.3125C2.4858 5.3125 2.65388 5.32682 2.87642 5.35547C3.09896 5.38411 3.26468 5.39844 3.37358 5.39844C3.54403 5.39844 3.66477 5.36198 3.7358 5.28906C3.77841 5.2474 3.81037 5.19141 3.83168 5.12109C3.85298 5.05078 3.87311 4.95703 3.89205 4.83984C3.91098 4.72266 3.92282 4.65365 3.92756 4.63281C3.93703 4.58594 3.98438 4.40625 4.0696 4.09375C4.15483 3.78125 4.22822 3.5026 4.28977 3.25781C4.35133 3.01302 4.3821 2.86198 4.3821 2.80469C4.3821 2.6901 4.27912 2.55339 4.07315 2.39453C3.86719 2.23568 3.68845 2.125 3.53693 2.0625C3.44223 2.02083 3.3357 2 3.21733 2C3.05634 2 2.82434 2.04688 2.52131 2.14062C2.25142 2.22917 2.02296 2.33464 1.83594 2.45703C1.64891 2.57943 1.48082 2.7513 1.33168 2.97266C1.18253 3.19401 1.07363 3.3763 1.00497 3.51953C0.936316 3.66276 0.828598 3.90885 0.681818 4.25781C0.653409 4.32031 0.632102 4.36979 0.617898 4.40625C0.38589 4.96354 0.224905 5.52604 0.134943 6.09375C0.0449811 6.66146 0 7.29688 0 8C0 8.70312 0.0449811 9.33854 0.134943 9.90625C0.224905 10.474 0.38589 11.0365 0.617898 11.5938C0.883049 12.2292 1.07955 12.6484 1.20739 12.8516C1.50568 13.3255 1.92945 13.6562 2.47869 13.8438L2.52131 13.8594C2.82434 13.9531 3.05634 14 3.21733 14C3.3357 14 3.44223 13.9792 3.53693 13.9375C3.68845 13.875 3.86719 13.7643 4.07315 13.6055C4.27912 13.4466 4.3821 13.3099 4.3821 13.1953ZM5.51136 6.0625C5.38826 6.0625 5.28172 6.01302 5.19176 5.91406C5.1018 5.8151 5.05682 5.69661 5.05682 5.55859C5.05682 5.42057 5.1018 5.30208 5.19176 5.20312C5.36695 5.01042 5.45455 4.77604 5.45455 4.5C5.45455 4.22917 5.36695 3.99219 5.19176 3.78906C5.1018 3.6901 5.05682 3.57292 5.05682 3.4375C5.05682 3.30208 5.1018 3.1849 5.19176 3.08594C5.28172 2.98698 5.38826 2.9375 5.51136 2.9375C5.63447 2.9375 5.741 2.98698 5.83097 3.08594C6.18608 3.47656 6.36364 3.94792 6.36364 4.5C6.36364 5.05208 6.18608 5.52344 5.83097 5.91406C5.73153 6.01302 5.625 6.0625 5.51136 6.0625ZM6.79688 7.47656C6.66903 7.47656 6.5625 7.42708 6.47727 7.32812C6.38731 7.22917 6.34233 7.11198 6.34233 6.97656C6.34233 6.84115 6.38731 6.72396 6.47727 6.625C7.00758 6.03125 7.27273 5.32292 7.27273 4.5C7.27273 3.67708 7.00758 2.96875 6.47727 2.375C6.38731 2.27604 6.34233 2.15885 6.34233 2.02344C6.34233 1.88802 6.38731 1.77083 6.47727 1.67188C6.56723 1.57292 6.67377 1.52344 6.79688 1.52344C6.91998 1.52344 7.02652 1.57292 7.11648 1.67188C7.8267 2.45312 8.18182 3.39583 8.18182 4.5C8.18182 5.60417 7.8267 6.54688 7.11648 7.32812C7.03125 7.42708 6.92472 7.47656 6.79688 7.47656ZM8.08239 8.89062C7.95455 8.89062 7.84801 8.84115 7.76278 8.74219C7.67282 8.64323 7.62784 8.52604 7.62784 8.39062C7.62784 8.25521 7.67282 8.13802 7.76278 8.03906C8.18892 7.5651 8.51681 7.02344 8.74645 6.41406C8.97609 5.80469 9.09091 5.16667 9.09091 4.5C9.09091 3.83333 8.97609 3.19531 8.74645 2.58594C8.51681 1.97656 8.18892 1.4349 7.76278 0.960938C7.67282 0.861979 7.62784 0.744792 7.62784 0.609375C7.62784 0.473958 7.67282 0.356771 7.76278 0.257812C7.85275 0.158854 7.95928 0.109375 8.08239 0.109375C8.20549 0.109375 8.31203 0.158854 8.40199 0.257812C8.91809 0.825521 9.31345 1.47396 9.58807 2.20312C9.86269 2.93229 10 3.69792 10 4.5C10 5.30208 9.86269 6.06771 9.58807 6.79688C9.31345 7.52604 8.91809 8.17448 8.40199 8.74219C8.31676 8.84115 8.21023 8.89062 8.08239 8.89062Z" fill="#56509F"/>
</g>
<defs>
<clipPath id="clip0_54_330">
<rect width="10" height="14" fill="white"/>
</clipPath>
</defs>
</svg>
