<svg width="139" height="54" viewBox="0 0 139 54" fill="none" xmlns="http://www.w3.org/2000/svg">
<g clip-path="url(#clip0_54_305)">
<path d="M0.773818 47.8074L23.7553 24.2501C23.8263 24.18 23.8703 24.0872 23.8797 23.9879C23.8891 23.8886 23.8632 23.7892 23.8067 23.7071C22.4093 21.7559 19.8304 21.4177 18.8749 20.1065C16.044 16.2232 15.3257 14.0251 14.1092 14.1612C14.0243 14.1735 13.9463 14.2147 13.8883 14.2779L5.58657 22.7881C0.810381 27.68 0.123944 38.4629 6.06624e-06 47.4926C-0.000460539 47.5824 0.0260006 47.6704 0.0759793 47.7451C0.125958 47.8198 0.197164 47.8778 0.280422 47.9117C0.363679 47.9456 0.455172 47.9538 0.543111 47.9352C0.63105 47.9166 0.711404 47.8721 0.773818 47.8074Z" fill="#F9D65B"/>
<path d="M47.8073 47.2259L24.25 24.2427C24.1799 24.1716 24.0869 24.1275 23.9875 24.1181C23.8881 24.1087 23.7885 24.1346 23.7063 24.1914C21.7551 25.5895 21.4169 28.1677 20.1057 29.1232C16.2222 31.954 14.0241 32.6725 14.1603 33.8889C14.1726 33.9734 14.2139 34.0512 14.2769 34.109L22.7873 42.4107C27.6792 47.1869 38.462 47.8734 47.4918 47.9973C47.5812 47.9973 47.6685 47.9707 47.7428 47.9209C47.817 47.8711 47.8747 47.8003 47.9086 47.7176C47.9424 47.6348 47.9508 47.5439 47.9328 47.4563C47.9148 47.3688 47.8711 47.2886 47.8073 47.2259Z" fill="#302072"/>
<path d="M22.7874 42.4135C20.1131 39.8044 18.8739 34.6435 23.9991 24.001C15.6671 27.7245 12.7476 32.6189 14.1834 34.0204L22.7874 42.4135Z" fill="#5840B8"/>
<path d="M47.2253 0.193179L24.2446 23.7507C24.1735 23.8207 24.1294 23.9135 24.1201 24.0127C24.1107 24.112 24.1366 24.2114 24.1932 24.2935C25.5914 26.2446 28.1686 26.5829 29.125 27.8941C31.9559 31.7776 32.675 33.9756 33.8907 33.8395C33.9756 33.8273 34.0538 33.7861 34.1116 33.7229L42.4133 25.2124C47.1895 20.3206 47.876 9.5378 47.9999 0.508179C48 0.418363 47.9733 0.330557 47.9232 0.256015C47.8731 0.181474 47.8019 0.123593 47.7187 0.0897921C47.6354 0.055991 47.544 0.0478094 47.4561 0.0662961C47.3682 0.0847827 47.2879 0.129095 47.2253 0.193554V0.193179Z" fill="#00C7D4"/>
<path d="M42.4172 25.2126C39.8081 27.8869 34.6472 29.1263 24.0039 24.001C27.7275 32.3329 32.622 35.2527 34.0233 33.8168L42.4172 25.2126Z" fill="#11E1EE"/>
<path d="M0.191041 0.774572L23.7482 23.7555C23.8929 23.9018 24.1217 23.9235 24.2912 23.8067C26.2423 22.4085 26.5805 19.8304 27.8917 18.8749C31.7752 16.044 33.9733 15.3257 33.8372 14.1092C33.8247 14.0244 33.7836 13.9464 33.7205 13.8883L25.2101 5.58657C20.3182 0.810385 9.53548 0.123947 0.505666 9.55143e-06C0.415641 -0.000576878 0.327509 0.0258528 0.252663 0.0758822C0.177817 0.125912 0.119697 0.197241 0.0858169 0.280649C0.0519366 0.364058 0.043853 0.455711 0.0626112 0.543763C0.0813694 0.631814 0.126107 0.712215 0.191041 0.774572Z" fill="#E43921"/>
<path d="M25.2136 5.58789C27.8879 8.19695 29.1271 13.3579 24.002 24.0011C32.3339 20.2776 35.2535 15.3823 33.8176 13.9817L25.2138 5.58789H25.2136Z" fill="#FF7557"/>
<path d="M5.58691 22.7896C8.19598 20.1153 13.3569 18.8759 24.0004 24.001C20.2766 15.6693 15.3823 12.7495 13.9807 14.1854L5.58691 22.7896Z" fill="#FCE07D"/>
<path d="M24.0029 25.0244C24.5703 25.0244 25.0302 24.5644 25.0302 23.997C25.0302 23.4297 24.5703 22.9697 24.0029 22.9697C23.4355 22.9697 22.9756 23.4297 22.9756 23.997C22.9756 24.5644 23.4355 25.0244 24.0029 25.0244Z" fill="#4A4848"/>
</g>
<rect width="91" height="25" transform="translate(48 23)" fill="white"/>
<path d="M50.052 33.372C49.836 33.236 49.668 33.044 49.548 32.796C49.428 32.54 49.372 32.284 49.38 32.028C49.372 31.532 49.412 31.032 49.5 30.528C49.596 30.016 49.72 29.52 49.872 29.04C49.976 28.752 50.088 28.456 50.208 28.152C50.336 27.84 50.464 27.548 50.592 27.276C50.72 27.004 50.832 26.788 50.928 26.628C51.176 26.22 51.436 25.884 51.708 25.62C51.988 25.348 52.196 25.172 52.332 25.092C52.444 25.028 52.636 24.964 52.908 24.9C53.188 24.836 53.476 24.84 53.772 24.912C53.98 24.968 54.172 25.036 54.348 25.116C54.532 25.196 54.652 25.264 54.708 25.32C54.772 25.416 54.828 25.5 54.876 25.572C54.932 25.636 54.96 25.716 54.96 25.812C54.968 25.876 54.944 25.956 54.888 26.052C54.84 26.14 54.776 26.204 54.696 26.244C54.624 26.284 54.552 26.264 54.48 26.184C54.376 26.024 54.268 25.916 54.156 25.86C54.044 25.796 53.924 25.732 53.796 25.668C53.708 25.612 53.588 25.584 53.436 25.584C53.284 25.576 53.128 25.592 52.968 25.632C52.808 25.672 52.668 25.74 52.548 25.836C52.468 25.908 52.364 26.016 52.236 26.16C52.108 26.296 51.98 26.448 51.852 26.616C51.724 26.784 51.62 26.948 51.54 27.108C51.324 27.484 51.128 27.864 50.952 28.248C50.784 28.624 50.64 29.036 50.52 29.484C50.488 29.596 50.444 29.76 50.388 29.976C50.34 30.192 50.292 30.408 50.244 30.624C50.196 30.84 50.164 31.016 50.148 31.152C50.092 31.544 50.072 31.888 50.088 32.184C50.112 32.48 50.216 32.684 50.4 32.796C50.584 32.908 50.888 32.892 51.312 32.748C51.496 32.724 51.692 32.644 51.9 32.508C52.116 32.372 52.324 32.204 52.524 32.004C52.732 31.796 52.908 31.576 53.052 31.344C53.188 31.088 53.308 30.836 53.412 30.588C53.524 30.34 53.584 30.136 53.592 29.976C53.6 29.816 53.524 29.74 53.364 29.748C53.068 29.716 52.828 29.708 52.644 29.724C52.46 29.732 52.296 29.704 52.152 29.64C52.096 29.552 52.072 29.464 52.08 29.376C52.088 29.288 52.136 29.2 52.224 29.112C52.312 29.08 52.46 29.056 52.668 29.04C52.876 29.024 53.1 29.032 53.34 29.064C53.58 29.088 53.792 29.144 53.976 29.232C54.112 29.296 54.208 29.392 54.264 29.52C54.32 29.64 54.348 29.78 54.348 29.94C54.348 30.1 54.332 30.264 54.3 30.432C54.26 30.608 54.172 30.82 54.036 31.068C53.908 31.308 53.752 31.564 53.568 31.836C53.448 32.004 53.28 32.188 53.064 32.388C52.856 32.588 52.64 32.768 52.416 32.928C52.2 33.088 52.016 33.196 51.864 33.252C51.544 33.396 51.216 33.488 50.88 33.528C50.544 33.576 50.268 33.524 50.052 33.372ZM55.1317 32.568C55.0997 32.504 55.0597 32.456 55.0117 32.424C54.9637 32.384 54.9397 32.348 54.9397 32.316C54.9397 32.284 54.9357 32.252 54.9277 32.22C54.9277 32.18 54.9117 32.144 54.8797 32.112C54.8397 32.064 54.8437 31.956 54.8917 31.788C54.9397 31.612 55.0197 31.4 55.1317 31.152C55.2437 30.896 55.3757 30.628 55.5277 30.348C55.5917 30.284 55.6557 30.2 55.7197 30.096C55.7837 29.992 55.8317 29.924 55.8637 29.892C55.8637 29.86 55.8757 29.832 55.8997 29.808C55.9237 29.776 55.9517 29.76 55.9837 29.76V29.688C55.9837 29.648 56.0197 29.58 56.0917 29.484C56.1717 29.388 56.2677 29.284 56.3797 29.172C56.4917 29.052 56.6077 28.94 56.7277 28.836C56.8477 28.724 56.9477 28.644 57.0277 28.596C57.1957 28.484 57.3677 28.416 57.5437 28.392C57.7277 28.368 57.8837 28.408 58.0117 28.512C58.0357 28.536 58.0757 28.576 58.1317 28.632C58.1877 28.688 58.2517 28.752 58.3237 28.824C58.4037 28.888 58.4837 28.956 58.5637 29.028L59.0077 29.424L58.7917 30.024C58.6877 30.344 58.6597 30.624 58.7077 30.864C58.7637 31.104 58.8437 31.312 58.9477 31.488C58.9877 31.576 59.0677 31.66 59.1877 31.74C59.3157 31.82 59.4357 31.868 59.5477 31.884C59.6117 31.892 59.6717 31.916 59.7277 31.956C59.7837 31.996 59.8117 32.06 59.8117 32.148C59.8117 32.228 59.7957 32.292 59.7637 32.34C59.7317 32.388 59.6757 32.42 59.5957 32.436C59.3317 32.468 59.0837 32.404 58.8517 32.244C58.6277 32.084 58.4197 31.82 58.2277 31.452C58.1957 31.404 58.1517 31.316 58.0957 31.188C58.0477 31.052 58.0197 30.964 58.0117 30.924C57.9797 30.964 57.9197 31.04 57.8317 31.152C57.7437 31.256 57.6757 31.332 57.6277 31.38C57.0597 31.956 56.5677 32.344 56.1517 32.544C55.7437 32.736 55.4037 32.744 55.1317 32.568ZM55.5637 31.896C55.5637 31.952 55.6477 31.952 55.8157 31.896C55.9917 31.832 56.1797 31.72 56.3797 31.56C56.6517 31.328 56.9237 31.072 57.1957 30.792C57.4757 30.512 57.6997 30.252 57.8677 30.012L58.1317 29.58C58.0517 29.396 57.9637 29.272 57.8677 29.208C57.7797 29.136 57.7037 29.1 57.6397 29.1C57.5357 29.1 57.3797 29.196 57.1717 29.388C56.9717 29.58 56.7557 29.836 56.5237 30.156C56.2917 30.476 56.0717 30.828 55.8637 31.212C55.7837 31.372 55.7117 31.528 55.6477 31.68C55.5917 31.824 55.5637 31.896 55.5637 31.896ZM60.5139 32.58C60.4419 32.524 60.3899 32.468 60.3579 32.412C60.3339 32.356 60.3339 32.248 60.3579 32.088C60.3819 31.864 60.4139 31.668 60.4539 31.5C60.4939 31.324 60.5419 31.124 60.5979 30.9C60.6139 30.804 60.6579 30.64 60.7299 30.408C60.8099 30.176 60.9059 29.924 61.0179 29.652C61.1299 29.38 61.2419 29.124 61.3539 28.884C61.4659 28.636 61.5619 28.452 61.6419 28.332C61.7059 28.284 61.7819 28.264 61.8699 28.272C61.9659 28.28 62.0459 28.316 62.1099 28.38C62.1979 28.452 62.2099 28.58 62.1459 28.764C62.0899 28.94 61.9699 29.22 61.7859 29.604C61.6899 29.82 61.6179 29.984 61.5699 30.096C61.5219 30.2 61.5019 30.264 61.5099 30.288C61.5179 30.304 61.5539 30.292 61.6179 30.252C61.6659 30.164 61.7539 30.064 61.8819 29.952C62.0099 29.832 62.1459 29.716 62.2899 29.604C62.4339 29.492 62.5699 29.392 62.6979 29.304C62.8259 29.216 62.9139 29.16 62.9619 29.136C63.0259 29.096 63.0979 29.064 63.1779 29.04C63.2659 29.008 63.3259 28.984 63.3579 28.968C63.5419 28.88 63.7299 28.848 63.9219 28.872C64.1139 28.896 64.2339 28.968 64.2819 29.088C64.2899 29.152 64.3139 29.2 64.3539 29.232C64.4019 29.264 64.4259 29.28 64.4259 29.28C64.4579 29.28 64.4739 29.292 64.4739 29.316C64.4819 29.34 64.4859 29.352 64.4859 29.352C64.4859 29.408 64.4419 29.444 64.3539 29.46C64.2739 29.468 64.1699 29.476 64.0419 29.484C63.9379 29.492 63.8459 29.512 63.7659 29.544C63.6859 29.576 63.5899 29.616 63.4779 29.664C63.1739 29.84 62.8819 30.012 62.6019 30.18C62.3299 30.348 62.0659 30.572 61.8099 30.852C61.7539 30.916 61.6979 30.992 61.6419 31.08C61.5859 31.168 61.5259 31.264 61.4619 31.368C61.4219 31.408 61.3819 31.496 61.3419 31.632C61.3019 31.768 61.2659 31.9 61.2339 32.028C61.2099 32.148 61.1979 32.22 61.1979 32.244C61.1979 32.244 61.1859 32.284 61.1619 32.364C61.1379 32.436 61.0979 32.508 61.0419 32.58C60.9459 32.708 60.8659 32.772 60.8019 32.772C60.7379 32.772 60.6419 32.708 60.5139 32.58ZM67.6822 32.88C67.6502 32.88 67.6022 32.876 67.5382 32.868C67.4822 32.852 67.4342 32.816 67.3942 32.76C67.2742 32.616 67.1982 32.496 67.1662 32.4C67.1342 32.304 67.1302 32.164 67.1542 31.98C67.1702 31.86 67.1782 31.756 67.1782 31.668C67.1862 31.572 67.1942 31.492 67.2022 31.428C67.1702 31.396 67.1102 31.42 67.0222 31.5C66.9422 31.572 66.8302 31.664 66.6862 31.776C66.4142 32.088 66.1702 32.328 65.9542 32.496C65.7462 32.656 65.5582 32.764 65.3902 32.82C65.2222 32.868 65.0622 32.884 64.9102 32.868C64.7742 32.852 64.6662 32.796 64.5862 32.7C64.5062 32.596 64.4542 32.464 64.4302 32.304C64.4142 32.144 64.4142 31.972 64.4302 31.788C64.4622 31.524 64.5182 31.272 64.5982 31.032C64.6862 30.792 64.8262 30.524 65.0182 30.228C65.1062 30.068 65.2222 29.912 65.3662 29.76C65.5182 29.6 65.6822 29.46 65.8582 29.34C66.0422 29.212 66.2182 29.12 66.3862 29.064C66.5702 28.992 66.7582 28.952 66.9502 28.944C67.1422 28.928 67.3142 28.944 67.4662 28.992C67.5622 29.04 67.6382 29.064 67.6942 29.064C67.7582 29.064 67.8062 29.024 67.8382 28.944C67.8782 28.88 67.9182 28.784 67.9582 28.656C67.9982 28.52 68.0462 28.404 68.1022 28.308L68.3662 27.528C68.4542 27.312 68.5502 27.084 68.6542 26.844C68.7582 26.604 68.8822 26.312 69.0262 25.968C69.1622 25.712 69.2742 25.564 69.3622 25.524C69.4502 25.476 69.5502 25.508 69.6622 25.62C69.7502 25.724 69.7822 25.844 69.7582 25.98C69.7342 26.108 69.6622 26.316 69.5422 26.604C69.4862 26.692 69.4382 26.776 69.3982 26.856C69.3582 26.928 69.3022 27.044 69.2302 27.204C69.1262 27.452 69.0302 27.676 68.9422 27.876C68.8542 28.068 68.7622 28.288 68.6662 28.536C68.6342 28.664 68.5902 28.812 68.5342 28.98C68.4862 29.148 68.4462 29.3 68.4142 29.436C68.3902 29.564 68.3622 29.684 68.3302 29.796C68.3062 29.9 68.2782 29.952 68.2462 29.952C68.1822 30.024 68.1222 30.152 68.0662 30.336C68.0102 30.512 67.9622 30.696 67.9222 30.888C67.8902 31.08 67.8622 31.24 67.8382 31.368C67.8222 31.464 67.8102 31.588 67.8022 31.74C67.7942 31.892 67.7902 32.04 67.7902 32.184C67.7902 32.32 67.7902 32.416 67.7902 32.472C67.7902 32.648 67.7862 32.76 67.7782 32.808C67.7702 32.856 67.7382 32.88 67.6822 32.88ZM65.1262 32.124C65.2942 32.124 65.4702 32.052 65.6542 31.908C65.8462 31.764 66.0382 31.604 66.2302 31.428C66.3502 31.316 66.4782 31.168 66.6142 30.984C66.7582 30.8 66.8942 30.616 67.0222 30.432C67.1582 30.248 67.2662 30.088 67.3462 29.952C67.4262 29.808 67.4662 29.72 67.4662 29.688C67.4662 29.648 67.4302 29.62 67.3582 29.604C67.2862 29.588 67.2022 29.58 67.1062 29.58C67.0182 29.572 66.9462 29.576 66.8902 29.592C66.7142 29.632 66.5382 29.712 66.3622 29.832C66.1942 29.952 66.0102 30.132 65.8102 30.372C65.6022 30.628 65.4302 30.892 65.2942 31.164C65.1662 31.436 65.0862 31.664 65.0542 31.848C65.0222 32.032 65.0462 32.124 65.1262 32.124ZM70.4731 33.036C70.1211 33.036 69.8331 32.904 69.6091 32.64C69.3851 32.368 69.2771 32.032 69.2851 31.632C69.3011 31.344 69.3571 31.036 69.4531 30.708C69.5571 30.372 69.6931 30.052 69.8611 29.748C70.0291 29.436 70.2131 29.164 70.4131 28.932C70.6131 28.7 70.8211 28.536 71.0371 28.44C71.1171 28.4 71.2011 28.368 71.2891 28.344C71.3851 28.32 71.4811 28.308 71.5771 28.308C71.6651 28.308 71.7571 28.324 71.8531 28.356C71.9491 28.38 72.0291 28.408 72.0931 28.44C72.2291 28.496 72.3331 28.564 72.4051 28.644C72.4771 28.724 72.5411 28.848 72.5971 29.016C72.6211 29.168 72.6331 29.276 72.6331 29.34C72.6331 29.404 72.6131 29.5 72.5731 29.628C72.4771 29.916 72.3531 30.164 72.2011 30.372C72.0491 30.58 71.8451 30.756 71.5891 30.9C71.5251 30.94 71.4491 30.972 71.3611 30.996C71.2811 31.012 71.1971 31.02 71.1091 31.02C70.9491 31.02 70.7931 30.992 70.6411 30.936C70.4971 30.872 70.3811 30.78 70.2931 30.66L70.2091 30.564L70.1731 30.66C70.0931 30.876 70.0291 31.076 69.9811 31.26C69.9411 31.444 69.9211 31.612 69.9211 31.764C69.9211 31.86 69.9291 31.952 69.9451 32.04C69.9691 32.128 70.0011 32.204 70.0411 32.268C70.0731 32.316 70.1251 32.352 70.1971 32.376C70.2771 32.392 70.3611 32.4 70.4491 32.4C70.5051 32.4 70.5611 32.4 70.6171 32.4C70.6811 32.392 70.7411 32.376 70.7971 32.352C70.9331 32.304 71.0411 32.252 71.1211 32.196C71.2091 32.14 71.2971 32.08 71.3851 32.016L71.4331 31.992H71.4211C71.5171 31.944 71.6011 31.896 71.6731 31.848C71.7531 31.8 71.7931 31.776 71.7931 31.776C71.8251 31.776 71.8571 31.756 71.8891 31.716C71.9531 31.684 72.0331 31.696 72.1291 31.752C72.2331 31.808 72.2851 31.88 72.2851 31.968C72.2771 32.008 72.2411 32.072 72.1771 32.16C72.1131 32.24 72.0411 32.316 71.9611 32.388C71.8891 32.46 71.8291 32.5 71.7811 32.508C71.7731 32.516 71.7451 32.532 71.6971 32.556C71.6491 32.572 71.6171 32.588 71.6011 32.604H71.6131C71.5411 32.7 71.4691 32.748 71.3971 32.748H71.3011C71.2691 32.804 71.1651 32.868 70.9891 32.94C70.8131 33.004 70.6411 33.036 70.4731 33.036ZM71.0131 30.396C71.1571 30.396 71.2811 30.356 71.3851 30.276C71.4971 30.188 71.5931 30.092 71.6731 29.988C71.8331 29.772 71.9251 29.564 71.9491 29.364C71.9811 29.156 71.9571 29.012 71.8771 28.932C71.8291 28.908 71.7851 28.896 71.7451 28.896C71.7131 28.888 71.6451 28.9 71.5411 28.932C71.4691 28.948 71.3691 29.008 71.2411 29.112C71.1131 29.216 70.9851 29.332 70.8571 29.46C70.7371 29.588 70.6451 29.696 70.5811 29.784L70.4251 30.036C70.4891 30.012 70.5491 30 70.6051 30C70.6691 29.992 70.7051 29.996 70.7131 30.012C70.7131 30.084 70.7251 30.152 70.7491 30.216C70.7811 30.272 70.8171 30.316 70.8571 30.348C70.9051 30.38 70.9571 30.396 71.0131 30.396ZM73.7994 32.472C73.7674 32.472 73.7194 32.452 73.6554 32.412C73.5994 32.364 73.5554 32.324 73.5234 32.292C73.4674 32.228 73.4314 32.164 73.4154 32.1C73.4074 32.036 73.4034 31.892 73.4034 31.668C73.4034 31.412 73.4554 31.136 73.5594 30.84C73.6634 30.536 73.8394 30.112 74.0874 29.568L74.4834 28.728C74.5154 28.664 74.5434 28.616 74.5674 28.584C74.5994 28.552 74.6274 28.52 74.6514 28.488C74.6834 28.488 74.7114 28.488 74.7354 28.488C74.7594 28.488 74.7714 28.488 74.7714 28.488C74.8354 28.488 74.8994 28.528 74.9634 28.608C75.0274 28.68 75.0754 28.76 75.1074 28.848C75.1074 28.952 75.0914 29.06 75.0594 29.172C75.0354 29.284 74.9394 29.452 74.7714 29.676C74.7154 29.764 74.6394 29.912 74.5434 30.12C74.4554 30.328 74.3954 30.508 74.3634 30.66C74.3554 30.668 74.3394 30.704 74.3154 30.768C74.2914 30.824 74.2634 30.888 74.2314 30.96C74.2074 31.032 74.1794 31.1 74.1474 31.164L74.0874 31.428L74.8914 30.6C75.2674 30.224 75.5714 29.956 75.8034 29.796C76.0354 29.636 76.2194 29.568 76.3554 29.592C76.4914 29.616 76.6074 29.724 76.7034 29.916C76.7594 30.004 76.7994 30.084 76.8234 30.156C76.8554 30.22 76.8754 30.308 76.8834 30.42C76.8914 30.532 76.8834 30.7 76.8594 30.924V31.668C76.9794 31.636 77.0754 31.608 77.1474 31.584C77.2194 31.552 77.2954 31.52 77.3754 31.488C77.4474 31.456 77.5314 31.428 77.6274 31.404C77.7234 31.372 77.8434 31.352 77.9874 31.344C77.9794 31.448 77.9434 31.56 77.8794 31.68C77.8154 31.792 77.7354 31.9 77.6394 32.004C77.5434 32.108 77.4354 32.192 77.3154 32.256C77.2034 32.32 77.0914 32.352 76.9794 32.352C76.8754 32.352 76.7594 32.3 76.6314 32.196C76.5034 32.092 76.4114 31.976 76.3554 31.848C76.3234 31.76 76.3034 31.664 76.2954 31.56C76.2954 31.456 76.2954 31.264 76.2954 30.984V30.54C76.2954 30.412 76.2554 30.376 76.1754 30.432C76.1034 30.48 76.0434 30.524 75.9954 30.564C75.8754 30.668 75.7474 30.788 75.6114 30.924C75.4834 31.06 75.3514 31.2 75.2154 31.344C74.8474 31.728 74.5394 32.012 74.2914 32.196C74.0514 32.38 73.8874 32.472 73.7994 32.472ZM82.744 32.928C82.64 32.936 82.556 32.928 82.492 32.904C82.428 32.872 82.348 32.828 82.252 32.772C82.076 32.636 81.944 32.5 81.856 32.364C81.776 32.22 81.74 32.08 81.748 31.944C81.764 31.872 81.764 31.808 81.748 31.752C81.74 31.696 81.736 31.668 81.736 31.668C81.688 31.628 81.672 31.604 81.688 31.596C81.704 31.58 81.716 31.556 81.724 31.524C81.788 31.508 81.796 31.464 81.748 31.392C81.724 31.328 81.736 31.184 81.784 30.96C81.84 30.728 81.912 30.512 82 30.312C82.04 30.224 82.096 30.108 82.168 29.964C82.248 29.82 82.336 29.676 82.432 29.532C82.528 29.38 82.616 29.26 82.696 29.172C82.872 28.972 83.028 28.824 83.164 28.728C83.308 28.624 83.468 28.54 83.644 28.476C83.804 28.412 83.92 28.376 83.992 28.368C84.064 28.36 84.164 28.408 84.292 28.512C84.484 28.568 84.628 28.648 84.724 28.752C84.828 28.848 84.908 29 84.964 29.208C85.028 29.44 85.048 29.716 85.024 30.036C85.008 30.348 84.872 30.752 84.616 31.248C84.464 31.56 84.312 31.796 84.16 31.956C84.016 32.116 83.84 32.284 83.632 32.46C83.48 32.588 83.34 32.688 83.212 32.76C83.084 32.832 82.928 32.888 82.744 32.928ZM83.704 31.5C83.864 31.26 83.988 31.04 84.076 30.84C84.172 30.632 84.248 30.372 84.304 30.06C84.32 29.972 84.324 29.864 84.316 29.736C84.308 29.6 84.288 29.476 84.256 29.364C84.232 29.252 84.196 29.192 84.148 29.184C84.044 29.144 83.928 29.144 83.8 29.184C83.672 29.216 83.532 29.312 83.38 29.472C83.244 29.632 83.12 29.812 83.008 30.012C82.904 30.212 82.808 30.432 82.72 30.672C82.632 30.912 82.548 31.168 82.468 31.44C82.388 31.744 82.392 31.976 82.48 32.136C82.576 32.296 82.732 32.336 82.948 32.256C83.164 32.168 83.416 31.916 83.704 31.5ZM86.0385 34.272C85.9905 34.304 85.9345 34.296 85.8705 34.248C85.8145 34.2 85.7305 34.112 85.6185 33.984C85.5625 33.92 85.5265 33.852 85.5105 33.78C85.4945 33.708 85.4985 33.572 85.5225 33.372C85.5545 33.284 85.5705 33.2 85.5705 33.12C85.5785 33.04 85.5825 32.984 85.5825 32.952C85.5825 32.904 85.5945 32.792 85.6185 32.616C85.6505 32.44 85.6825 32.256 85.7145 32.064C85.7465 31.864 85.7745 31.712 85.7985 31.608C85.7985 31.6 85.8025 31.58 85.8105 31.548C85.8185 31.516 85.8265 31.488 85.8345 31.464C85.8505 31.392 85.8705 31.296 85.8945 31.176C85.9265 31.056 85.9545 30.908 85.9785 30.732C86.0425 30.532 86.0945 30.336 86.1345 30.144C86.1825 29.944 86.2065 29.808 86.2065 29.736C86.2065 29.592 86.2625 29.488 86.3745 29.424C86.3825 29.384 86.4065 29.324 86.4465 29.244C86.4865 29.156 86.5225 29.084 86.5545 29.028C86.7145 28.572 86.8465 28.212 86.9505 27.948C87.0545 27.676 87.1625 27.44 87.2745 27.24C87.3225 27.104 87.3745 26.964 87.4305 26.82C87.4945 26.676 87.5585 26.564 87.6225 26.484C87.6625 26.38 87.7545 26.248 87.8985 26.088C88.0425 25.92 88.1945 25.76 88.3545 25.608C88.5145 25.448 88.6425 25.328 88.7385 25.248C88.9145 25.16 89.0545 25.1 89.1585 25.068C89.2625 25.036 89.3985 25.02 89.5665 25.02C89.7185 25.02 89.8185 25.04 89.8665 25.08C89.9225 25.112 90.0025 25.176 90.1065 25.272C90.2185 25.392 90.2825 25.472 90.2985 25.512C90.3145 25.552 90.3225 25.628 90.3225 25.74C90.3065 25.844 90.2625 25.98 90.1905 26.148C90.1265 26.308 90.0545 26.456 89.9745 26.592C89.9025 26.72 89.8425 26.788 89.7945 26.796C89.6985 26.828 89.6265 26.82 89.5785 26.772C89.5385 26.716 89.5185 26.628 89.5185 26.508C89.5185 26.452 89.5025 26.4 89.4705 26.352C89.4465 26.296 89.4345 26.268 89.4345 26.268C89.4345 26.244 89.4385 26.204 89.4465 26.148C89.4625 26.084 89.4865 26.024 89.5185 25.968C89.5585 25.888 89.5665 25.828 89.5425 25.788C89.5265 25.748 89.4745 25.74 89.3865 25.764C89.3625 25.78 89.2985 25.828 89.1945 25.908C89.0905 25.988 88.9785 26.08 88.8585 26.184C88.7465 26.28 88.6465 26.372 88.5585 26.46C88.4705 26.548 88.4265 26.604 88.4265 26.628C88.4265 26.628 88.4105 26.664 88.3785 26.736C88.3465 26.8 88.2865 26.884 88.1985 26.988C88.1425 27.068 88.0905 27.148 88.0425 27.228C88.0025 27.3 87.9825 27.344 87.9825 27.36C87.9825 27.392 87.9785 27.428 87.9705 27.468C87.9705 27.5 87.9505 27.516 87.9105 27.516C87.9105 27.516 87.8985 27.552 87.8745 27.624C87.8505 27.696 87.8065 27.788 87.7425 27.9C87.7105 27.98 87.6705 28.064 87.6225 28.152C87.5745 28.232 87.5345 28.288 87.5025 28.32H87.5145C87.5145 28.32 87.4945 28.372 87.4545 28.476C87.4225 28.572 87.3865 28.676 87.3465 28.788C87.3065 28.892 87.2865 28.952 87.2865 28.968C87.2865 29 87.3425 29.016 87.4545 29.016C87.5745 29.016 87.7145 29.004 87.8745 28.98C88.0345 28.948 88.1785 28.916 88.3065 28.884C88.4185 28.852 88.4945 28.836 88.5345 28.836C88.5745 28.836 88.6545 28.852 88.7745 28.884C88.8385 28.924 88.8905 28.984 88.9305 29.064C88.9785 29.136 89.0105 29.208 89.0265 29.28C89.0505 29.344 89.0505 29.392 89.0265 29.424C89.0185 29.456 88.9305 29.5 88.7625 29.556C88.5945 29.612 88.4265 29.656 88.2585 29.688C88.1145 29.72 87.9385 29.756 87.7305 29.796C87.5225 29.836 87.3385 29.872 87.1785 29.904C87.0265 29.936 86.9505 29.964 86.9505 29.988C86.9185 29.988 86.8905 30.008 86.8665 30.048C86.8425 30.08 86.8305 30.108 86.8305 30.132C86.8305 30.244 86.8145 30.328 86.7825 30.384C86.7665 30.432 86.7385 30.528 86.6985 30.672C86.6585 30.816 86.6145 30.976 86.5665 31.152C86.5265 31.328 86.4905 31.488 86.4585 31.632C86.4345 31.776 86.4225 31.872 86.4225 31.92C86.3745 31.976 86.3465 32.048 86.3385 32.136C86.3305 32.216 86.3265 32.288 86.3265 32.352C86.2945 32.416 86.2745 32.476 86.2665 32.532C86.2585 32.58 86.2545 32.62 86.2545 32.652C86.2545 32.66 86.2545 32.676 86.2545 32.7C86.2545 32.724 86.2505 32.748 86.2425 32.772C86.2345 32.852 86.2225 32.956 86.2065 33.084C86.1985 33.22 86.1945 33.352 86.1945 33.48L86.1585 33.828C86.1505 33.932 86.1385 34.02 86.1225 34.092C86.1065 34.172 86.0785 34.232 86.0385 34.272ZM92.2089 35.1C92.1129 35.164 92.0129 35.16 91.9089 35.088C91.8129 35.016 91.7409 34.908 91.6929 34.764C91.6449 34.62 91.6489 34.468 91.7049 34.308C91.7209 34.26 91.7449 34.18 91.7769 34.068C91.8089 33.964 91.8289 33.872 91.8369 33.792C91.8449 33.736 91.8689 33.64 91.9089 33.504C91.9489 33.376 91.9929 33.248 92.0409 33.12C92.0969 32.992 92.1409 32.9 92.1729 32.844C92.2209 32.764 92.2529 32.672 92.2689 32.568C92.2929 32.464 92.3049 32.384 92.3049 32.328C92.3209 32.272 92.3409 32.208 92.3649 32.136C92.3969 32.064 92.4289 32.008 92.4609 31.968C92.4769 31.904 92.5009 31.836 92.5329 31.764C92.5649 31.684 92.6009 31.616 92.6409 31.56C92.6569 31.504 92.6689 31.436 92.6769 31.356C92.6929 31.276 92.7169 31.232 92.7489 31.224C92.7569 31.192 92.7609 31.16 92.7609 31.128C92.7689 31.096 92.7849 31.052 92.8089 30.996C92.8249 30.908 92.8609 30.78 92.9169 30.612C92.9729 30.444 93.0409 30.26 93.1209 30.06C93.2089 29.828 93.2489 29.608 93.2409 29.4C93.2409 29.184 93.1809 29.052 93.0609 29.004C92.9969 28.972 92.9569 28.928 92.9409 28.872C92.9249 28.808 92.9329 28.744 92.9649 28.68C92.9969 28.616 93.0449 28.572 93.1089 28.548C93.1809 28.516 93.2569 28.504 93.3369 28.512C93.4249 28.52 93.5009 28.536 93.5649 28.56C93.6289 28.576 93.6569 28.592 93.6489 28.608C93.6489 28.648 93.6689 28.672 93.7089 28.68C93.7249 28.656 93.7569 28.684 93.8049 28.764C93.8609 28.836 93.9129 28.92 93.9609 29.016C94.0089 29.112 94.0329 29.18 94.0329 29.22C94.0169 29.252 94.0089 29.272 94.0089 29.28C94.0089 29.28 94.0249 29.28 94.0569 29.28C94.0569 29.28 94.1009 29.26 94.1889 29.22C94.2769 29.172 94.3689 29.12 94.4649 29.064C94.5689 29 94.6369 28.952 94.6689 28.92C94.6689 28.92 94.6889 28.912 94.7289 28.896C94.7769 28.872 94.8169 28.844 94.8489 28.812C95.0089 28.748 95.1809 28.736 95.3649 28.776C95.5569 28.816 95.7089 28.888 95.8209 28.992C95.9809 29.192 96.0609 29.384 96.0609 29.568C96.0689 29.752 96.0169 29.984 95.9049 30.264C95.8889 30.304 95.8529 30.372 95.7969 30.468C95.7489 30.556 95.7009 30.64 95.6529 30.72C95.6049 30.792 95.5809 30.828 95.5809 30.828C95.3969 31.116 95.1809 31.356 94.9329 31.548C94.6849 31.74 94.4329 31.908 94.1769 32.052C94.0969 32.108 94.0129 32.152 93.9249 32.184C93.8449 32.208 93.7729 32.224 93.7089 32.232C93.6449 32.232 93.6009 32.224 93.5769 32.208C93.4889 32.144 93.4089 32.008 93.3369 31.8C93.2969 31.904 93.2569 32.008 93.2169 32.112C93.1849 32.208 93.1649 32.272 93.1569 32.304C93.1489 32.36 93.1409 32.408 93.1329 32.448C93.1249 32.48 93.1049 32.508 93.0729 32.532C93.0729 32.532 93.0689 32.548 93.0609 32.58C93.0529 32.612 93.0249 32.66 92.9769 32.724C92.8969 32.956 92.8249 33.156 92.7609 33.324C92.6969 33.5 92.6449 33.648 92.6049 33.768C92.5649 33.896 92.5329 34.008 92.5089 34.104C92.4929 34.32 92.4489 34.532 92.3769 34.74C92.3049 34.956 92.2489 35.076 92.2089 35.1ZM93.6369 31.68C93.6689 31.664 93.7369 31.62 93.8409 31.548C93.9529 31.468 94.0769 31.376 94.2129 31.272C94.3489 31.16 94.4729 31.056 94.5849 30.96C94.7049 30.864 94.7849 30.792 94.8249 30.744C94.8889 30.672 94.9489 30.596 95.0049 30.516C95.0609 30.428 95.1049 30.332 95.1369 30.228C95.1609 30.164 95.1889 30.092 95.2209 30.012C95.2529 29.932 95.2809 29.856 95.3049 29.784C95.3369 29.72 95.3489 29.656 95.3409 29.592C95.3409 29.52 95.3169 29.46 95.2689 29.412C95.2369 29.404 95.1409 29.428 94.9809 29.484C94.8209 29.532 94.6449 29.616 94.4529 29.736C94.2609 29.848 94.0929 29.996 93.9489 30.18C93.7809 30.396 93.6569 30.62 93.5769 30.852C93.5049 31.084 93.4729 31.28 93.4809 31.44C93.4969 31.6 93.5489 31.68 93.6369 31.68ZM97.5241 32.82C97.4201 32.82 97.3361 32.8 97.2721 32.76C97.2161 32.72 97.1441 32.664 97.0561 32.592C96.9041 32.432 96.7961 32.28 96.7321 32.136C96.6681 31.984 96.6481 31.84 96.6721 31.704C96.6961 31.64 96.7041 31.58 96.6961 31.524C96.6961 31.46 96.6961 31.428 96.6961 31.428C96.6561 31.388 96.6441 31.364 96.6601 31.356C96.6761 31.34 96.6921 31.316 96.7081 31.284C96.7561 31.284 96.7721 31.24 96.7561 31.152C96.7401 31.088 96.7721 30.948 96.8521 30.732C96.9321 30.516 97.0321 30.312 97.1521 30.12C97.2001 30.04 97.2721 29.936 97.3681 29.808C97.4641 29.672 97.5681 29.54 97.6801 29.412C97.8001 29.276 97.9081 29.168 98.0041 29.088C98.2041 28.92 98.3801 28.796 98.5321 28.716C98.6841 28.636 98.8481 28.576 99.0241 28.536C99.2001 28.496 99.3201 28.476 99.3841 28.476C99.4561 28.476 99.5521 28.54 99.6721 28.668C99.8561 28.748 99.9881 28.844 100.068 28.956C100.156 29.068 100.212 29.232 100.236 29.448C100.26 29.688 100.24 29.964 100.176 30.276C100.12 30.58 99.9321 30.96 99.6121 31.416C99.4121 31.704 99.2281 31.92 99.0601 32.064C98.8921 32.2 98.6921 32.336 98.4601 32.472C98.2921 32.584 98.1401 32.668 98.0041 32.724C97.8681 32.772 97.7081 32.804 97.5241 32.82ZM98.6761 31.548C98.8681 31.332 99.0201 31.128 99.1321 30.936C99.2521 30.744 99.3641 30.5 99.4681 30.204C99.5001 30.116 99.5201 30.008 99.5281 29.88C99.5361 29.744 99.5321 29.62 99.5161 29.508C99.5081 29.388 99.4801 29.32 99.4321 29.304C99.3361 29.248 99.2201 29.232 99.0841 29.256C98.9481 29.272 98.8001 29.348 98.6401 29.484C98.3921 29.692 98.1761 29.952 97.9921 30.264C97.8081 30.568 97.6281 30.916 97.4521 31.308C97.3321 31.596 97.3041 31.828 97.3681 32.004C97.4401 32.172 97.5881 32.232 97.8121 32.184C98.0441 32.128 98.3321 31.916 98.6761 31.548ZM102.031 32.832C101.631 32.832 101.339 32.688 101.155 32.4C101.099 32.32 101.071 32.24 101.071 32.16C101.079 32.072 101.103 32.012 101.143 31.98C101.191 31.948 101.247 31.976 101.311 32.064C101.423 32.128 101.583 32.16 101.791 32.16C101.895 32.16 102.003 32.152 102.115 32.136C102.227 32.112 102.339 32.08 102.451 32.04C102.571 31.984 102.651 31.936 102.691 31.896C102.731 31.848 102.723 31.808 102.667 31.776H102.679C102.471 31.72 102.259 31.632 102.043 31.512C101.835 31.384 101.655 31.248 101.503 31.104C101.351 30.952 101.263 30.816 101.239 30.696C101.175 30.448 101.191 30.196 101.287 29.94C101.383 29.676 101.519 29.444 101.695 29.244C101.759 29.204 101.839 29.156 101.935 29.1C102.031 29.036 102.107 29 102.163 28.992V29.004C102.315 28.844 102.499 28.716 102.715 28.62C102.939 28.524 103.175 28.436 103.423 28.356L103.603 28.332C103.699 28.316 103.779 28.308 103.843 28.308C103.835 28.308 103.851 28.316 103.891 28.332C103.931 28.34 103.967 28.348 103.999 28.356C104.047 28.38 104.087 28.392 104.119 28.392C104.223 28.408 104.319 28.456 104.407 28.536C104.495 28.616 104.563 28.712 104.611 28.824C104.667 28.928 104.687 29.028 104.671 29.124C104.655 29.276 104.607 29.412 104.527 29.532C104.455 29.652 104.367 29.72 104.263 29.736C104.279 29.728 104.267 29.716 104.227 29.7C104.195 29.676 104.159 29.652 104.119 29.628L104.083 29.652C104.083 29.652 104.079 29.644 104.071 29.628C104.071 29.604 104.063 29.576 104.047 29.544C104.023 29.496 104.011 29.444 104.011 29.388C104.011 29.324 104.015 29.256 104.023 29.184C104.039 29.096 104.039 29.044 104.023 29.028C104.015 29.012 103.963 29 103.867 28.992C103.755 28.968 103.591 28.988 103.375 29.052C103.167 29.116 102.991 29.204 102.847 29.316C102.671 29.428 102.523 29.536 102.403 29.64C102.283 29.736 102.187 29.832 102.115 29.928C102.043 30.016 101.979 30.12 101.923 30.24C101.883 30.296 101.847 30.352 101.815 30.408C101.791 30.456 101.779 30.5 101.779 30.54C101.779 30.628 101.843 30.72 101.971 30.816C102.107 30.904 102.307 31.008 102.571 31.128C102.779 31.216 102.955 31.312 103.099 31.416C103.243 31.52 103.343 31.64 103.399 31.776C103.415 31.808 103.419 31.848 103.411 31.896C103.411 31.936 103.403 31.964 103.387 31.98C103.403 31.996 103.411 32.008 103.411 32.016V32.004C103.475 32.1 103.475 32.2 103.411 32.304C103.355 32.408 103.255 32.5 103.111 32.58C102.975 32.652 102.807 32.708 102.607 32.748H102.619C102.515 32.78 102.411 32.804 102.307 32.82C102.211 32.828 102.119 32.832 102.031 32.832ZM105.748 33.048C105.596 32.984 105.452 32.9 105.316 32.796C105.18 32.684 105.092 32.592 105.052 32.52C105.052 32.448 105.064 32.4 105.088 32.376C105.112 32.344 105.18 32.332 105.292 32.34C105.412 32.34 105.604 32.356 105.868 32.388C105.964 32.388 106.084 32.38 106.228 32.364C106.372 32.348 106.504 32.324 106.624 32.292C106.752 32.26 106.824 32.22 106.84 32.172C106.88 32.172 106.888 32.16 106.864 32.136C106.84 32.104 106.812 32.072 106.78 32.04C106.748 32.04 106.712 32.028 106.672 32.004C106.632 31.972 106.596 31.956 106.564 31.956C106.564 31.916 106.524 31.872 106.444 31.824C106.372 31.768 106.296 31.724 106.216 31.692C106.04 31.548 105.888 31.42 105.76 31.308C105.632 31.188 105.584 31.108 105.616 31.068C105.616 31.036 105.616 31.02 105.616 31.02C105.616 31.012 105.616 31.008 105.616 31.008C105.56 31.008 105.496 30.928 105.424 30.768C105.36 30.608 105.328 30.464 105.328 30.336C105.328 30.24 105.356 30.12 105.412 29.976C105.468 29.824 105.544 29.668 105.64 29.508C105.736 29.348 105.836 29.216 105.94 29.112C106.084 28.976 106.264 28.832 106.48 28.68C106.696 28.52 106.908 28.38 107.116 28.26C107.332 28.132 107.512 28.048 107.656 28.008C107.8 27.952 107.932 27.924 108.052 27.924C108.18 27.924 108.292 27.952 108.388 28.008C108.468 28.048 108.54 28.108 108.604 28.188C108.676 28.26 108.736 28.336 108.784 28.416C108.84 28.488 108.876 28.552 108.892 28.608C108.892 28.704 108.884 28.812 108.868 28.932C108.852 29.044 108.828 29.144 108.796 29.232C108.772 29.32 108.732 29.364 108.676 29.364C108.676 29.364 108.664 29.368 108.64 29.376C108.624 29.376 108.616 29.396 108.616 29.436C108.616 29.516 108.556 29.608 108.436 29.712C108.284 29.816 108.152 29.88 108.04 29.904C107.928 29.92 107.86 29.876 107.836 29.772C107.812 29.74 107.796 29.712 107.788 29.688C107.78 29.664 107.76 29.652 107.728 29.652C107.728 29.652 107.716 29.64 107.692 29.616C107.668 29.592 107.656 29.552 107.656 29.496C107.656 29.464 107.668 29.436 107.692 29.412C107.716 29.38 107.728 29.364 107.728 29.364C107.768 29.364 107.82 29.32 107.884 29.232C107.948 29.136 108.004 29.036 108.052 28.932C108.108 28.82 108.136 28.744 108.136 28.704C108.136 28.656 108.128 28.628 108.112 28.62C108.104 28.612 108.068 28.608 108.004 28.608C107.892 28.656 107.756 28.72 107.596 28.8C107.436 28.88 107.284 28.96 107.14 29.04C107.004 29.112 106.904 29.18 106.84 29.244C106.808 29.3 106.788 29.336 106.78 29.352C106.772 29.36 106.752 29.364 106.72 29.364C106.72 29.332 106.692 29.348 106.636 29.412C106.588 29.468 106.524 29.548 106.444 29.652C106.372 29.756 106.3 29.86 106.228 29.964C106.164 30.06 106.116 30.132 106.084 30.18C106.068 30.196 106.048 30.244 106.024 30.324C106.008 30.396 106 30.464 106 30.528C105.968 30.624 105.972 30.692 106.012 30.732C106.052 30.764 106.14 30.836 106.276 30.948C106.556 31.156 106.776 31.328 106.936 31.464C107.096 31.6 107.216 31.712 107.296 31.8C107.376 31.888 107.424 31.968 107.44 32.04C107.584 32.28 107.628 32.464 107.572 32.592C107.516 32.72 107.38 32.832 107.164 32.928C107.084 32.968 106.952 33 106.768 33.024C106.584 33.048 106.396 33.06 106.204 33.06C106.012 33.068 105.86 33.064 105.748 33.048ZM109.706 32.628C109.586 32.612 109.482 32.528 109.394 32.376C109.314 32.216 109.266 32.072 109.25 31.944C109.258 31.88 109.266 31.788 109.274 31.668C109.29 31.548 109.306 31.424 109.322 31.296C109.354 31.144 109.398 30.96 109.454 30.744C109.51 30.52 109.566 30.296 109.622 30.072C109.686 29.848 109.742 29.656 109.79 29.496C109.838 29.336 109.87 29.24 109.886 29.208C109.926 29.144 109.99 29.128 110.078 29.16C110.166 29.192 110.238 29.24 110.294 29.304C110.342 29.368 110.37 29.444 110.378 29.532C110.394 29.62 110.382 29.748 110.342 29.916C110.31 30.084 110.246 30.332 110.15 30.66C110.062 30.98 109.994 31.24 109.946 31.44C109.906 31.632 109.89 31.836 109.898 32.052C109.866 32.324 109.842 32.492 109.826 32.556C109.81 32.612 109.77 32.636 109.706 32.628ZM111.086 27.84C111.054 27.864 111.022 27.876 110.99 27.876C110.966 27.868 110.922 27.844 110.858 27.804C110.802 27.796 110.73 27.76 110.642 27.696C110.562 27.624 110.49 27.552 110.426 27.48C110.37 27.4 110.342 27.352 110.342 27.336C110.334 27.256 110.338 27.156 110.354 27.036C110.378 26.908 110.422 26.796 110.486 26.7C110.55 26.596 110.642 26.54 110.762 26.532C110.794 26.532 110.822 26.536 110.846 26.544C110.87 26.552 110.942 26.58 111.062 26.628C111.126 26.748 111.19 26.884 111.254 27.036C111.318 27.18 111.346 27.324 111.338 27.468C111.33 27.604 111.246 27.728 111.086 27.84ZM112.281 32.64C112.177 32.664 112.081 32.664 111.993 32.64C111.905 32.616 111.825 32.576 111.753 32.52C111.681 32.464 111.617 32.408 111.561 32.352C111.505 32.288 111.489 32.232 111.513 32.184C111.537 32.128 111.577 32.1 111.633 32.1C111.665 32.1 111.685 32.068 111.693 32.004C111.709 31.932 111.725 31.804 111.741 31.62C111.757 31.508 111.777 31.412 111.801 31.332C111.833 31.244 111.849 31.184 111.849 31.152C111.857 31.128 111.865 31.064 111.873 30.96C111.889 30.848 111.913 30.752 111.945 30.672C111.977 30.528 112.025 30.344 112.089 30.12C112.153 29.888 112.217 29.664 112.281 29.448C112.353 29.224 112.409 29.052 112.449 28.932C112.465 28.844 112.501 28.732 112.557 28.596C112.613 28.46 112.661 28.352 112.701 28.272C112.781 28.048 112.885 27.78 113.013 27.468C113.149 27.156 113.285 26.844 113.421 26.532C113.557 26.22 113.677 25.956 113.781 25.74C113.893 25.516 113.965 25.38 113.997 25.332C114.061 25.268 114.137 25.24 114.225 25.248C114.321 25.256 114.413 25.304 114.501 25.392C114.573 25.48 114.605 25.576 114.597 25.68C114.589 25.776 114.537 25.88 114.441 25.992C114.409 26.048 114.373 26.12 114.333 26.208C114.293 26.288 114.253 26.356 114.213 26.412C114.149 26.604 114.069 26.792 113.973 26.976C113.885 27.16 113.789 27.368 113.685 27.6C113.581 27.824 113.469 28.104 113.349 28.44C113.277 28.592 113.217 28.744 113.169 28.896C113.121 29.04 113.081 29.132 113.049 29.172C113.001 29.348 112.941 29.532 112.869 29.724C112.797 29.908 112.745 30.096 112.713 30.288C112.713 30.288 112.753 30.248 112.833 30.168C112.921 30.088 113.025 29.988 113.145 29.868C113.457 29.532 113.769 29.256 114.081 29.04C114.401 28.824 114.665 28.712 114.873 28.704C114.985 28.696 115.105 28.724 115.233 28.788C115.369 28.852 115.493 28.932 115.605 29.028C115.717 29.116 115.793 29.212 115.833 29.316C115.897 29.46 115.921 29.616 115.905 29.784C115.897 29.944 115.849 30.116 115.761 30.3C115.681 30.476 115.569 30.656 115.425 30.84C115.337 30.992 115.229 31.14 115.101 31.284C114.981 31.42 114.877 31.52 114.789 31.584C114.709 31.656 114.629 31.728 114.549 31.8C114.477 31.864 114.417 31.916 114.369 31.956C114.265 32.028 114.181 32.084 114.117 32.124C114.053 32.156 113.965 32.192 113.853 32.232C113.685 32.352 113.453 32.44 113.157 32.496C112.861 32.552 112.569 32.6 112.281 32.64ZM112.593 32.028C112.649 32.028 112.749 32.016 112.893 31.992C113.045 31.968 113.185 31.908 113.313 31.812C113.689 31.62 114.013 31.384 114.285 31.104C114.557 30.816 114.761 30.532 114.897 30.252C115.041 29.964 115.105 29.728 115.089 29.544C115.073 29.36 114.933 29.32 114.669 29.424C114.405 29.528 114.085 29.768 113.709 30.144C113.533 30.304 113.365 30.476 113.205 30.66C113.053 30.836 112.909 31.004 112.773 31.164C112.717 31.252 112.669 31.328 112.629 31.392C112.597 31.456 112.577 31.52 112.569 31.584C112.505 31.88 112.513 32.028 112.593 32.028ZM116.787 32.412C116.755 32.412 116.715 32.404 116.667 32.388C116.627 32.364 116.607 32.352 116.607 32.352C116.607 32.32 116.595 32.28 116.571 32.232C116.555 32.184 116.547 32.144 116.547 32.112C116.491 32.08 116.459 32.048 116.451 32.016C116.443 31.976 116.455 31.912 116.487 31.824C116.535 31.744 116.599 31.616 116.679 31.44C116.759 31.256 116.843 31.06 116.931 30.852C117.019 30.636 117.103 30.424 117.183 30.216C117.263 30.008 117.331 29.832 117.387 29.688C117.443 29.536 117.475 29.444 117.483 29.412C117.483 29.38 117.495 29.34 117.519 29.292C117.543 29.244 117.571 29.204 117.603 29.172C117.667 29.116 117.735 29.112 117.807 29.16C117.879 29.2 117.939 29.272 117.987 29.376C118.043 29.472 118.071 29.58 118.071 29.7C118.071 29.756 118.031 29.9 117.951 30.132C117.871 30.356 117.763 30.624 117.627 30.936C117.499 31.248 117.355 31.564 117.195 31.884C117.075 32.116 116.999 32.264 116.967 32.328C116.935 32.384 116.875 32.412 116.787 32.412ZM118.551 27.864C118.455 27.864 118.351 27.828 118.239 27.756C118.135 27.676 118.043 27.58 117.963 27.468C117.891 27.348 117.855 27.228 117.855 27.108C117.855 27.068 117.879 27.012 117.927 26.94C117.975 26.868 118.023 26.796 118.071 26.724C118.119 26.652 118.143 26.608 118.143 26.592C118.207 26.592 118.255 26.596 118.287 26.604C118.327 26.604 118.375 26.62 118.431 26.652C118.519 26.852 118.627 27.016 118.755 27.144C118.891 27.272 118.959 27.38 118.959 27.468C118.959 27.644 118.943 27.756 118.911 27.804C118.879 27.844 118.759 27.864 118.551 27.864ZM118.81 33.108C118.706 33.068 118.63 33.008 118.582 32.928C118.534 32.84 118.506 32.716 118.498 32.556C118.498 32.46 118.514 32.332 118.546 32.172C118.578 32.012 118.614 31.828 118.654 31.62C118.654 31.604 118.654 31.588 118.654 31.572C118.662 31.548 118.666 31.532 118.666 31.524C118.674 31.492 118.682 31.444 118.69 31.38C118.706 31.316 118.718 31.268 118.726 31.236C118.734 31.196 118.738 31.196 118.738 31.236L118.822 30.912C118.862 30.768 118.902 30.624 118.942 30.48C118.982 30.336 119.018 30.212 119.05 30.108C119.082 29.996 119.102 29.932 119.11 29.916C119.11 29.916 119.126 29.872 119.158 29.784C119.19 29.688 119.222 29.596 119.254 29.508C119.39 29.132 119.514 28.816 119.626 28.56C119.738 28.296 119.838 28.104 119.926 27.984C119.934 27.96 119.946 27.932 119.962 27.9C119.978 27.86 119.99 27.828 119.998 27.804C120.006 27.74 120.014 27.692 120.022 27.66C120.038 27.62 120.058 27.584 120.082 27.552C120.098 27.52 120.122 27.48 120.154 27.432C120.186 27.376 120.222 27.308 120.262 27.228L120.31 27.096C120.358 26.992 120.418 26.876 120.49 26.748C120.562 26.62 120.614 26.528 120.646 26.472C120.678 26.4 120.726 26.316 120.79 26.22C120.854 26.116 120.902 26.048 120.934 26.016L120.922 26.004C120.962 25.932 121.01 25.892 121.066 25.884C121.13 25.868 121.198 25.86 121.27 25.86C121.382 25.86 121.446 25.876 121.462 25.908C121.478 25.94 121.486 26.012 121.486 26.124C121.486 26.244 121.482 26.332 121.474 26.388C121.474 26.436 121.442 26.492 121.378 26.556H121.39C121.406 26.54 121.402 26.56 121.378 26.616C121.354 26.664 121.334 26.7 121.318 26.724C121.302 26.764 121.282 26.808 121.258 26.856C121.242 26.904 121.222 26.94 121.198 26.964C121.174 26.996 121.114 27.104 121.018 27.288C120.93 27.464 120.826 27.672 120.706 27.912C120.594 28.152 120.486 28.384 120.382 28.608C120.278 28.832 120.202 29.004 120.154 29.124L120.094 29.304C120.078 29.336 120.07 29.36 120.07 29.376C120.046 29.432 120.022 29.488 119.998 29.544C119.974 29.6 119.95 29.648 119.926 29.688L119.722 30.384L119.662 30.636L119.554 30.9L119.482 31.128C119.466 31.176 119.454 31.22 119.446 31.26C119.438 31.3 119.422 31.332 119.398 31.356C119.398 31.364 119.394 31.376 119.386 31.392C119.386 31.4 119.386 31.408 119.386 31.416C119.354 31.544 119.318 31.724 119.278 31.956C119.238 32.188 119.21 32.432 119.194 32.688C119.194 32.696 119.19 32.704 119.182 32.712C119.182 32.72 119.182 32.728 119.182 32.736C119.158 32.904 119.118 33.016 119.062 33.072C119.006 33.128 118.922 33.14 118.81 33.108ZM120.957 32.616C120.893 32.552 120.845 32.472 120.813 32.376C120.789 32.28 120.781 32.184 120.789 32.088C120.797 31.992 120.817 31.912 120.849 31.848C120.849 31.784 120.857 31.736 120.873 31.704C120.897 31.664 120.905 31.628 120.897 31.596C120.889 31.564 120.897 31.508 120.921 31.428C120.945 31.348 120.969 31.272 120.993 31.2C121.049 31.072 121.109 30.92 121.173 30.744C121.237 30.56 121.297 30.38 121.353 30.204C121.409 30.028 121.457 29.876 121.497 29.748C121.537 29.62 121.561 29.54 121.569 29.508C121.569 29.412 121.633 29.36 121.761 29.352C121.857 29.32 121.929 29.32 121.977 29.352C122.025 29.376 122.089 29.452 122.169 29.58C122.233 29.644 122.257 29.74 122.241 29.868C122.225 29.996 122.173 30.156 122.085 30.348C122.053 30.412 122.013 30.504 121.965 30.624C121.925 30.744 121.897 30.852 121.881 30.948C121.849 31.012 121.809 31.104 121.761 31.224C121.721 31.336 121.685 31.444 121.653 31.548C121.637 31.588 121.621 31.648 121.605 31.728C121.589 31.8 121.569 31.88 121.545 31.968C121.521 32.048 121.489 32.12 121.449 32.184C121.377 32.512 121.309 32.704 121.245 32.76C121.189 32.816 121.093 32.768 120.957 32.616ZM122.121 27.744C122.081 27.704 122.045 27.648 122.013 27.576C121.981 27.496 121.961 27.424 121.953 27.36C121.945 27.288 121.953 27.252 121.977 27.252C122.041 27.244 122.117 27.176 122.205 27.048C122.293 26.92 122.329 26.808 122.313 26.712C122.313 26.68 122.325 26.652 122.349 26.628C122.373 26.596 122.401 26.576 122.433 26.568C122.529 26.504 122.621 26.496 122.709 26.544C122.805 26.584 122.893 26.668 122.973 26.796C123.045 26.948 123.065 27.076 123.033 27.18C123.001 27.276 122.913 27.412 122.769 27.588C122.649 27.748 122.537 27.836 122.433 27.852C122.337 27.868 122.233 27.832 122.121 27.744ZM124.011 32.916C123.923 32.9 123.831 32.856 123.735 32.784C123.647 32.704 123.567 32.616 123.495 32.52C123.431 32.416 123.387 32.324 123.363 32.244C123.363 32.228 123.351 32.208 123.327 32.184C123.311 32.16 123.303 32.148 123.303 32.148C123.271 32.124 123.251 32.02 123.243 31.836C123.243 31.644 123.255 31.432 123.279 31.2C123.303 30.968 123.331 30.784 123.363 30.648C123.403 30.52 123.463 30.348 123.543 30.132C123.623 29.908 123.691 29.708 123.747 29.532L124.071 28.836L123.591 28.704C123.535 28.688 123.487 28.656 123.447 28.608C123.415 28.56 123.399 28.52 123.399 28.488C123.399 28.424 123.435 28.348 123.507 28.26C123.579 28.164 123.631 28.116 123.663 28.116C123.703 28.124 123.775 28.128 123.879 28.128C123.991 28.128 124.099 28.124 124.203 28.116C124.307 28.108 124.371 28.1 124.395 28.092C124.427 28.076 124.459 28.056 124.491 28.032C124.523 28 124.547 27.956 124.563 27.9C124.603 27.812 124.639 27.732 124.671 27.66C124.703 27.58 124.747 27.492 124.803 27.396C124.859 27.292 124.903 27.204 124.935 27.132C124.975 27.06 125.035 26.96 125.115 26.832C125.155 26.776 125.199 26.708 125.247 26.628C125.295 26.548 125.355 26.48 125.427 26.424C125.499 26.36 125.571 26.332 125.643 26.34C125.723 26.34 125.823 26.392 125.943 26.496C126.007 26.576 126.043 26.636 126.051 26.676C126.059 26.716 126.027 26.792 125.955 26.904C125.891 27.04 125.815 27.176 125.727 27.312C125.647 27.448 125.571 27.584 125.499 27.72C125.371 27.896 125.347 27.996 125.427 28.02C125.507 28.044 125.731 28.028 126.099 27.972C126.331 27.932 126.499 27.944 126.603 28.008C126.707 28.064 126.767 28.16 126.783 28.296C126.807 28.488 126.787 28.604 126.723 28.644C126.659 28.684 126.475 28.704 126.171 28.704C125.979 28.736 125.815 28.756 125.679 28.764C125.543 28.764 125.443 28.764 125.379 28.764C125.275 28.772 125.207 28.776 125.175 28.776C125.143 28.776 125.095 28.784 125.031 28.8C124.967 28.816 124.919 28.844 124.887 28.884C124.863 28.916 124.835 28.964 124.803 29.028C124.771 29.06 124.723 29.144 124.659 29.28C124.595 29.416 124.515 29.564 124.419 29.724C124.307 30.06 124.211 30.396 124.131 30.732C124.051 31.06 123.987 31.38 123.939 31.692C123.907 31.892 123.911 32.032 123.951 32.112C123.991 32.184 124.095 32.228 124.263 32.244C124.351 32.252 124.491 32.252 124.683 32.244C124.883 32.228 125.039 32.204 125.151 32.172C125.239 32.132 125.331 32.092 125.427 32.052C125.523 32.004 125.611 31.956 125.691 31.908C125.763 31.868 125.835 31.828 125.907 31.788C125.979 31.74 126.015 31.716 126.015 31.716C126.055 31.652 126.099 31.632 126.147 31.656C126.195 31.68 126.235 31.74 126.267 31.836C126.267 31.932 126.247 32.032 126.207 32.136C126.167 32.24 126.019 32.364 125.763 32.508C125.403 32.732 125.071 32.868 124.767 32.916C124.471 32.956 124.219 32.956 124.011 32.916ZM127.636 32.628C127.516 32.612 127.412 32.528 127.324 32.376C127.244 32.216 127.196 32.072 127.18 31.944C127.188 31.88 127.196 31.788 127.204 31.668C127.22 31.548 127.236 31.424 127.252 31.296C127.284 31.144 127.328 30.96 127.384 30.744C127.44 30.52 127.496 30.296 127.552 30.072C127.616 29.848 127.672 29.656 127.72 29.496C127.768 29.336 127.8 29.24 127.816 29.208C127.856 29.144 127.92 29.128 128.008 29.16C128.096 29.192 128.168 29.24 128.224 29.304C128.272 29.368 128.3 29.444 128.308 29.532C128.324 29.62 128.312 29.748 128.272 29.916C128.24 30.084 128.176 30.332 128.08 30.66C127.992 30.98 127.924 31.24 127.876 31.44C127.836 31.632 127.82 31.836 127.828 32.052C127.796 32.324 127.772 32.492 127.756 32.556C127.74 32.612 127.7 32.636 127.636 32.628ZM129.016 27.84C128.984 27.864 128.952 27.876 128.92 27.876C128.896 27.868 128.852 27.844 128.788 27.804C128.732 27.796 128.66 27.76 128.572 27.696C128.492 27.624 128.42 27.552 128.356 27.48C128.3 27.4 128.272 27.352 128.272 27.336C128.264 27.256 128.268 27.156 128.284 27.036C128.308 26.908 128.352 26.796 128.416 26.7C128.48 26.596 128.572 26.54 128.692 26.532C128.724 26.532 128.752 26.536 128.776 26.544C128.8 26.552 128.872 26.58 128.992 26.628C129.056 26.748 129.12 26.884 129.184 27.036C129.248 27.18 129.276 27.324 129.268 27.468C129.26 27.604 129.176 27.728 129.016 27.84ZM130.114 32.712C129.802 32.584 129.598 32.408 129.502 32.184C129.414 31.952 129.398 31.596 129.454 31.116C129.47 30.868 129.478 30.704 129.478 30.624C129.478 30.544 129.434 30.464 129.346 30.384C129.322 30.352 129.278 30.308 129.214 30.252C129.158 30.196 129.134 30.148 129.142 30.108C129.134 30.052 129.138 29.992 129.154 29.928C129.17 29.856 129.194 29.82 129.226 29.82C129.258 29.82 129.29 29.812 129.322 29.796C129.362 29.78 129.398 29.78 129.43 29.796C129.462 29.796 129.498 29.8 129.538 29.808C129.578 29.816 129.598 29.836 129.598 29.868C129.63 29.924 129.682 29.932 129.754 29.892C129.826 29.844 129.902 29.74 129.982 29.58C130.062 29.452 130.166 29.324 130.294 29.196C130.43 29.068 130.562 28.952 130.69 28.848C130.826 28.736 130.938 28.656 131.026 28.608C131.066 28.592 131.126 28.572 131.206 28.548C131.286 28.524 131.37 28.504 131.458 28.488C131.554 28.472 131.634 28.468 131.698 28.476C131.842 28.484 131.962 28.524 132.058 28.596C132.162 28.668 132.258 28.752 132.346 28.848C132.45 28.92 132.514 29.016 132.538 29.136C132.57 29.256 132.578 29.384 132.562 29.52C132.546 29.656 132.51 29.78 132.454 29.892C132.43 29.972 132.362 30.068 132.25 30.18C132.138 30.292 132.01 30.4 131.866 30.504C131.722 30.608 131.59 30.684 131.47 30.732C131.366 30.756 131.23 30.776 131.062 30.792C130.902 30.808 130.75 30.816 130.606 30.816C130.47 30.808 130.378 30.792 130.33 30.768C130.274 30.736 130.23 30.78 130.198 30.9C130.166 31.02 130.142 31.192 130.126 31.416C130.11 31.592 130.11 31.72 130.126 31.8C130.142 31.88 130.158 31.936 130.174 31.968C130.23 32.024 130.306 32.096 130.402 32.184C130.506 32.264 130.65 32.276 130.834 32.22C130.986 32.18 131.134 32.076 131.278 31.908C131.43 31.74 131.57 31.604 131.698 31.5C131.73 31.444 131.782 31.412 131.854 31.404C131.934 31.388 132.018 31.392 132.106 31.416C132.194 31.472 132.23 31.54 132.214 31.62C132.206 31.692 132.166 31.804 132.094 31.956C132.07 32.012 132.014 32.084 131.926 32.172C131.846 32.252 131.754 32.336 131.65 32.424C131.554 32.504 131.466 32.568 131.386 32.616C131.146 32.744 130.922 32.812 130.714 32.82C130.506 32.82 130.306 32.784 130.114 32.712ZM130.822 30.276C130.998 30.236 131.138 30.208 131.242 30.192C131.346 30.176 131.446 30.132 131.542 30.06C131.638 29.98 131.758 29.832 131.902 29.616C131.934 29.528 131.942 29.44 131.926 29.352C131.918 29.264 131.898 29.204 131.866 29.172C131.794 29.092 131.706 29.068 131.602 29.1C131.506 29.124 131.414 29.168 131.326 29.232C131.27 29.256 131.186 29.316 131.074 29.412C130.97 29.5 130.866 29.604 130.762 29.724C130.658 29.836 130.574 29.94 130.51 30.036C130.446 30.132 130.43 30.188 130.462 30.204C130.446 30.236 130.49 30.256 130.594 30.264C130.706 30.272 130.782 30.276 130.822 30.276ZM134.317 32.892C134.117 32.908 133.925 32.896 133.741 32.856C133.565 32.816 133.413 32.748 133.285 32.652C133.165 32.548 133.081 32.424 133.033 32.28C132.977 32.168 132.949 32.092 132.949 32.052C132.949 32.004 132.977 31.964 133.033 31.932C133.097 31.932 133.153 31.952 133.201 31.992C133.257 32.024 133.329 32.06 133.417 32.1C133.537 32.204 133.681 32.26 133.849 32.268C134.025 32.276 134.185 32.248 134.329 32.184C134.473 32.12 134.553 32.04 134.569 31.944C134.569 31.912 134.557 31.856 134.533 31.776C134.509 31.696 134.481 31.612 134.449 31.524C134.233 31.22 134.073 30.92 133.969 30.624C133.873 30.32 133.825 30.072 133.825 29.88C133.825 29.736 133.869 29.584 133.957 29.424C134.045 29.256 134.165 29.116 134.317 29.004C134.461 28.852 134.621 28.716 134.797 28.596C134.973 28.476 135.149 28.372 135.325 28.284C135.509 28.196 135.673 28.132 135.817 28.092C135.905 28.092 136.021 28.104 136.165 28.128C136.309 28.152 136.409 28.18 136.465 28.212C136.553 28.244 136.637 28.332 136.717 28.476C136.797 28.612 136.837 28.748 136.837 28.884C136.837 28.94 136.821 29.012 136.789 29.1C136.757 29.188 136.705 29.292 136.633 29.412C136.601 29.5 136.565 29.584 136.525 29.664C136.485 29.736 136.465 29.788 136.465 29.82C136.425 29.908 136.369 29.952 136.297 29.952C136.233 29.944 136.165 29.908 136.093 29.844C136.029 29.772 135.977 29.688 135.937 29.592C135.905 29.472 135.893 29.376 135.901 29.304C135.909 29.224 135.941 29.14 135.997 29.052C136.085 28.964 136.129 28.904 136.129 28.872C136.129 28.84 136.085 28.824 135.997 28.824C135.941 28.824 135.837 28.86 135.685 28.932C135.541 28.996 135.385 29.084 135.217 29.196C135.057 29.3 134.917 29.412 134.797 29.532C134.645 29.676 134.553 29.78 134.521 29.844C134.497 29.908 134.485 30.008 134.485 30.144C134.485 30.256 134.509 30.396 134.557 30.564C134.613 30.732 134.669 30.844 134.725 30.9C134.725 30.9 134.753 30.956 134.809 31.068C134.865 31.172 134.933 31.284 135.013 31.404C135.245 31.916 135.305 32.284 135.193 32.508C135.081 32.732 134.789 32.86 134.317 32.892Z" fill="#56509F"/>
<path d="M51.06 50.82C51.06 50.82 50.9933 50.7933 50.86 50.74C50.7267 50.7 50.58 50.66 50.42 50.62C50.2733 50.58 50.16 50.56 50.08 50.56C49.8667 50.5067 49.7133 50.3867 49.62 50.2C49.5267 50.0267 49.5067 49.8333 49.56 49.62C49.6133 49.5667 49.6533 49.4533 49.68 49.28C49.7067 49.1067 49.72 48.9667 49.72 48.86C49.7733 48.7533 49.8067 48.68 49.82 48.64C49.8333 48.5867 49.8667 48.4533 49.92 48.24C49.96 48.0133 50.0267 47.7 50.12 47.3C50.2267 46.8867 50.34 46.4467 50.46 45.98C50.5933 45.5133 50.72 45.0667 50.84 44.64C50.96 44.2133 51.0667 43.8533 51.16 43.56C51.2667 43.2667 51.34 43.1 51.38 43.06C51.38 43.06 51.38 43.04 51.38 43C51.38 42.9467 51.38 42.8933 51.38 42.84C51.38 42.84 51.3867 42.78 51.4 42.66C51.4267 42.5267 51.4933 42.38 51.6 42.22C51.6533 42.0733 51.7 41.9133 51.74 41.74C51.78 41.5667 51.8 41.4533 51.8 41.4C51.8533 41.3333 51.9267 41.1733 52.02 40.92C52.1267 40.6533 52.2267 40.3933 52.32 40.14C52.4 39.9267 52.4867 39.7 52.58 39.46C52.6867 39.22 52.7733 39.0133 52.84 38.84C52.92 38.6667 52.96 38.58 52.96 38.58C52.96 38.5267 52.96 38.5 52.96 38.5C52.96 38.4867 52.96 38.48 52.96 38.48C53.0133 38.4267 53.14 38.16 53.34 37.68C53.5533 37.1867 53.84 36.5533 54.2 35.78C54.2533 35.6733 54.3333 35.5067 54.44 35.28C54.5467 35.04 54.6 34.8933 54.6 34.84C54.8 34.64 54.9933 34.5733 55.18 34.64C55.38 34.6933 55.5533 34.8067 55.7 34.98C55.86 35.1533 55.9733 35.3133 56.04 35.46L56.24 35.78L55.5 37.22C55.2867 37.5933 55.1 37.9333 54.94 38.24C54.7933 38.5467 54.72 38.7267 54.72 38.78C54.72 38.78 54.6867 38.86 54.62 39.02C54.5667 39.18 54.5 39.3867 54.42 39.64C54.34 39.88 54.26 40.12 54.18 40.36C54.0333 40.7733 53.8933 41.12 53.76 41.4C53.6267 41.6667 53.56 41.8267 53.56 41.88C53.56 41.8533 53.6933 41.8333 53.96 41.82C54.24 41.8067 54.5867 41.8 55 41.8C55.4133 41.8 55.8333 41.8 56.26 41.8C56.7 41.7867 57.0933 41.78 57.44 41.78C57.7867 41.7667 58.0267 41.7467 58.16 41.72L59.2 41.62L59.76 39.84C59.8667 39.4667 60.0067 39.0133 60.18 38.48C60.3533 37.9467 60.5067 37.4933 60.64 37.12C60.8533 36.5067 61.08 36.08 61.32 35.84C61.56 35.5867 61.76 35.46 61.92 35.46C61.96 35.46 62.0333 35.5 62.14 35.58C62.26 35.6467 62.38 35.7267 62.5 35.82C62.62 35.9133 62.6933 36 62.72 36.08C62.88 36.2267 62.9533 36.3933 62.94 36.58C62.94 36.7667 62.8333 37.0133 62.62 37.32C62.4067 37.68 62.2267 38.0733 62.08 38.5C61.9467 38.9133 61.8267 39.2533 61.72 39.52C61.72 39.68 61.7 39.8133 61.66 39.92C61.62 40.0133 61.5733 40.0867 61.52 40.14C61.4933 40.1667 61.44 40.2667 61.36 40.44C61.28 40.6133 61.2067 40.7867 61.14 40.96C61.0733 41.1333 61.04 41.24 61.04 41.28C61.04 41.3733 61.02 41.4867 60.98 41.62C60.94 41.7533 60.8933 41.8467 60.84 41.9C60.8133 41.98 60.7533 42.18 60.66 42.5C60.5667 42.82 60.46 43.2 60.34 43.64C60.22 44.0667 60.0933 44.4867 59.96 44.9C59.8267 45.3 59.7067 45.6333 59.6 45.9C59.6 45.9933 59.5667 46.1133 59.5 46.26C59.4333 46.3933 59.4 46.5133 59.4 46.62C59.3467 46.78 59.28 46.98 59.2 47.22C59.12 47.46 59.08 47.6133 59.08 47.68C59.0133 47.9867 58.94 48.34 58.86 48.74C58.7933 49.14 58.7333 49.4933 58.68 49.8C58.64 50.1067 58.62 50.28 58.62 50.32C58.2733 50.36 58.0133 50.3133 57.84 50.18C57.6667 50.0467 57.5067 49.9533 57.36 49.9C57.1067 49.7533 56.9533 49.5667 56.9 49.34C56.86 49.1267 56.9133 48.8667 57.06 48.56C57.1267 48.4533 57.2067 48.1933 57.3 47.78C57.4067 47.3533 57.5133 46.9333 57.62 46.52C57.7 46.32 57.7867 46.0667 57.88 45.76C57.9733 45.4533 58.06 45.1533 58.14 44.86C58.2333 44.5533 58.3133 44.2933 58.38 44.08C58.4467 43.8667 58.4933 43.7467 58.52 43.72C58.52 43.6667 58.52 43.62 58.52 43.58C58.52 43.54 58.52 43.52 58.52 43.52C58.4933 43.4933 58.36 43.4733 58.12 43.46C57.88 43.4333 57.5733 43.4267 57.2 43.44C56.84 43.44 56.4467 43.4533 56.02 43.48C55.5933 43.4933 55.1867 43.5267 54.8 43.58C54.6533 43.58 54.44 43.58 54.16 43.58C53.8933 43.58 53.7067 43.58 53.6 43.58C53.4533 43.58 53.3267 43.58 53.22 43.58C53.1267 43.58 53.08 43.58 53.08 43.58C53.0533 43.62 53 43.7533 52.92 43.98C52.8533 44.2067 52.7667 44.48 52.66 44.8C52.5667 45.12 52.4667 45.4467 52.36 45.78C52.2667 46.1133 52.18 46.42 52.1 46.7C52.0333 46.9667 51.9867 47.16 51.96 47.28C51.9067 47.52 51.8333 47.82 51.74 48.18C51.66 48.54 51.5667 48.9067 51.46 49.28C51.3667 49.6667 51.28 50 51.2 50.28C51.1333 50.56 51.0867 50.74 51.06 50.82ZM61.9644 48.58C61.911 48.4733 61.791 48.3667 61.6044 48.26C61.431 48.1533 61.3444 48.0733 61.3444 48.02C61.3444 47.9667 61.311 47.8867 61.2444 47.78C61.191 47.66 61.1377 47.5733 61.0844 47.52C61.0177 47.44 61.0377 47.2467 61.1444 46.94C61.251 46.62 61.411 46.2333 61.6244 45.78C61.8377 45.3267 62.071 44.8667 62.3244 44.4C62.431 44.2933 62.5377 44.1533 62.6444 43.98C62.751 43.8067 62.831 43.6933 62.8844 43.64C62.8844 43.5867 62.9044 43.54 62.9444 43.5C62.9844 43.4467 63.031 43.42 63.0844 43.42L63.2444 43.1C63.271 43.0467 63.351 42.94 63.4844 42.78C63.631 42.62 63.8044 42.4467 64.0044 42.26C64.2044 42.06 64.4044 41.8733 64.6044 41.7C64.8177 41.5267 64.991 41.4 65.1244 41.32C65.4044 41.1333 65.691 41.0467 65.9844 41.06C66.291 41.0733 66.551 41.1667 66.7644 41.34C66.8044 41.38 66.891 41.46 67.0244 41.58C67.171 41.7 67.331 41.8333 67.5044 41.98C67.691 42.1267 67.851 42.26 67.9844 42.38L68.7244 43.04L68.3844 44.04C68.211 44.5733 68.1644 45.04 68.2444 45.44C68.3244 45.84 68.451 46.1867 68.6244 46.48C68.691 46.6267 68.7777 46.74 68.8844 46.82C69.0044 46.9 69.1577 46.9533 69.3444 46.98C69.451 46.9933 69.551 47.0333 69.6444 47.1C69.7377 47.1667 69.7844 47.2733 69.7844 47.42C69.7844 47.74 69.7244 47.9733 69.6044 48.12C69.4977 48.2533 69.3777 48.3333 69.2444 48.36C68.8044 48.4133 68.3844 48.3667 67.9844 48.22C67.5844 48.0733 67.2244 47.6933 66.9044 47.08C66.851 47 66.7777 46.8533 66.6844 46.64C66.6044 46.4133 66.5577 46.2667 66.5444 46.2C66.491 46.2667 66.4177 46.3533 66.3244 46.46C66.2444 46.5533 66.1644 46.64 66.0844 46.72C65.1377 47.68 64.3244 48.3067 63.6444 48.6C62.9777 48.88 62.4177 48.8733 61.9644 48.58ZM63.0644 46.92C63.1577 46.9333 63.3044 46.8867 63.5044 46.78C63.7044 46.66 63.971 46.4667 64.3044 46.2C64.7577 45.8133 65.131 45.4933 65.4244 45.24C65.7177 44.9867 66.0044 44.66 66.2844 44.26L66.7244 43.54C66.591 43.2333 66.471 43.0333 66.3644 42.94C66.2577 42.8467 66.151 42.8 66.0444 42.8C65.871 42.8 65.6644 42.9133 65.4244 43.14C65.1844 43.3533 64.911 43.6733 64.6044 44.1C64.311 44.5133 63.9777 45.0333 63.6044 45.66C63.431 45.9533 63.2977 46.24 63.2044 46.52C63.111 46.7867 63.0644 46.92 63.0644 46.92ZM69.6302 53.66C69.5768 53.66 69.4968 53.66 69.3902 53.66C69.2968 53.6733 69.2168 53.62 69.1502 53.5C69.0968 53.4333 69.0168 53.3 68.9102 53.1C68.8035 52.9133 68.7835 52.6467 68.8502 52.3C68.9168 52.0733 68.9702 51.8467 69.0102 51.62C69.0502 51.4067 69.0702 51.2467 69.0702 51.14C69.0702 51.0867 69.0835 50.98 69.1102 50.82C69.1502 50.6733 69.1702 50.5667 69.1702 50.5C69.2368 50.3933 69.2902 50.2467 69.3302 50.06C69.3702 49.8733 69.3902 49.7067 69.3902 49.56C69.3902 49.4 69.4702 49.2533 69.6302 49.12C69.6302 49.0133 69.6502 48.88 69.6902 48.72C69.7435 48.56 69.7702 48.4533 69.7702 48.4C69.8102 48.2133 69.8968 47.8867 70.0302 47.42C70.1768 46.94 70.3502 46.4 70.5502 45.8C70.7635 45.2 70.9702 44.6133 71.1702 44.04C71.3702 43.4667 71.5502 42.98 71.7102 42.58C71.8702 42.2067 72.0035 41.86 72.1102 41.54C72.2168 41.22 72.2702 40.9933 72.2702 40.86C72.2702 40.8067 72.2835 40.7667 72.3102 40.74C72.3368 40.7 72.3968 40.6267 72.4902 40.52C72.6235 40.3867 72.7968 40.34 73.0102 40.38C73.2368 40.4067 73.4235 40.4733 73.5702 40.58C73.6768 40.7533 73.7502 40.9133 73.7902 41.06C73.8435 41.1933 73.8435 41.4067 73.7902 41.7C73.7902 41.9 73.7435 42.0867 73.6502 42.26C73.5568 42.42 73.4702 42.5533 73.3902 42.66C73.3235 42.7533 73.3035 42.7933 73.3302 42.78C73.9168 42.42 74.4435 42.2267 74.9102 42.2C75.3902 42.16 75.7902 42.24 76.1102 42.44C76.4435 42.6267 76.6968 42.8867 76.8702 43.22C77.0435 43.5533 77.1302 43.9133 77.1302 44.3C77.1302 44.46 77.0768 44.6733 76.9702 44.94C76.8635 45.2067 76.7435 45.46 76.6102 45.7C76.4768 45.9267 76.3702 46.08 76.2902 46.16C76.2368 46.16 76.1835 46.2067 76.1302 46.3C76.0768 46.38 76.0235 46.4733 75.9702 46.58C75.8635 46.7133 75.6835 46.8667 75.4302 47.04C75.1902 47.2 74.9435 47.3333 74.6902 47.44C74.4368 47.5333 74.2568 47.56 74.1502 47.52C74.1502 47.52 74.1302 47.5333 74.0902 47.56C74.0635 47.5867 74.0502 47.6333 74.0502 47.7C74.0502 47.7267 73.9568 47.78 73.7702 47.86C73.5835 47.94 73.3635 48.0133 73.1102 48.08C72.8568 48.1467 72.6235 48.18 72.4102 48.18C72.1302 48.18 71.9302 48.1267 71.8102 48.02C71.7835 48.0467 71.7502 48.0867 71.7102 48.14C71.6835 48.1933 71.6702 48.24 71.6702 48.28C71.6702 48.36 71.6368 48.4867 71.5702 48.66C71.5168 48.8333 71.4502 48.9867 71.3702 49.12C71.2902 49.2667 71.2168 49.34 71.1502 49.34C71.1502 49.34 71.1368 49.36 71.1102 49.4C71.0835 49.44 71.0968 49.4933 71.1502 49.56C71.1502 49.56 71.1435 49.6333 71.1302 49.78C71.1302 49.94 71.0968 50.0733 71.0302 50.18C71.0302 50.2867 71.0102 50.4467 70.9702 50.66C70.9302 50.8733 70.8835 51.0333 70.8302 51.14C70.8302 51.3 70.8035 51.4533 70.7502 51.6C70.7102 51.76 70.6635 51.84 70.6102 51.84C70.5568 51.8533 70.5235 51.9333 70.5102 52.08C70.4968 52.24 70.4902 52.3533 70.4902 52.42C70.4768 52.7533 70.3702 53.04 70.1702 53.28C69.9702 53.5333 69.7902 53.66 69.6302 53.66ZM72.1902 46.66C72.2968 46.66 72.4902 46.6133 72.7702 46.52C73.0502 46.4267 73.3435 46.3133 73.6502 46.18C73.9568 46.0333 74.1968 45.8867 74.3702 45.74C74.7168 45.4333 74.9835 45.1333 75.1702 44.84C75.3702 44.5467 75.3568 44.22 75.1302 43.86C75.0235 43.6733 74.8502 43.6 74.6102 43.64C74.3835 43.6667 74.1302 43.7733 73.8502 43.96C73.5702 44.1467 73.2835 44.38 72.9902 44.66C72.8302 44.8333 72.6835 45.0333 72.5502 45.26C72.4168 45.4867 72.3035 45.7067 72.2102 45.92C72.1302 46.1333 72.0835 46.3133 72.0702 46.46C72.0568 46.5933 72.0968 46.66 72.1902 46.66ZM77.7888 52.7C77.6021 52.7533 77.4088 52.7067 77.2088 52.56C77.0221 52.4133 76.8754 52.2133 76.7688 51.96C76.6754 51.7067 76.6754 51.4467 76.7688 51.18C76.7954 51.1 76.8354 50.9667 76.8888 50.78C76.9421 50.6067 76.9754 50.4533 76.9888 50.32C77.0021 50.2267 77.0421 50.0667 77.1088 49.84C77.1754 49.6267 77.2488 49.4133 77.3288 49.2C77.4221 48.9867 77.4954 48.8333 77.5488 48.74C77.6288 48.6067 77.6821 48.4533 77.7088 48.28C77.7488 48.1067 77.7688 47.9733 77.7688 47.88C77.7954 47.7867 77.8288 47.68 77.8688 47.56C77.9221 47.44 77.9754 47.3467 78.0288 47.28C78.0554 47.1733 78.0954 47.06 78.1488 46.94C78.2021 46.8067 78.2621 46.6933 78.3288 46.6C78.3554 46.5067 78.3754 46.3933 78.3888 46.26C78.4154 46.1267 78.4554 46.0533 78.5088 46.04C78.5221 45.9867 78.5288 45.9333 78.5288 45.88C78.5421 45.8267 78.5688 45.7533 78.6087 45.66C78.6354 45.5133 78.6954 45.3 78.7888 45.02C78.8821 44.74 78.9954 44.4333 79.1288 44.1C79.2754 43.7133 79.3754 43.38 79.4288 43.1C79.4821 42.8067 79.4088 42.62 79.2088 42.54C79.1021 42.4867 79.0354 42.3667 79.0088 42.18C78.9821 41.98 78.9954 41.78 79.0488 41.58C79.1021 41.38 79.1821 41.26 79.2888 41.22C79.4088 41.1667 79.5554 41.1333 79.7288 41.12C79.9021 41.1067 80.0554 41.1067 80.1888 41.12C80.3354 41.12 80.4021 41.1333 80.3888 41.16C80.3888 41.2267 80.4221 41.2667 80.4888 41.28C80.5154 41.24 80.5688 41.3 80.6488 41.46C80.7421 41.6067 80.8288 41.7733 80.9088 41.96C80.9888 42.1467 81.0288 42.2733 81.0288 42.34C81.0021 42.3933 80.9888 42.4267 80.9888 42.44C80.9888 42.44 81.0154 42.44 81.0688 42.44C81.0688 42.44 81.1421 42.4067 81.2888 42.34C81.4354 42.26 81.5888 42.1733 81.7488 42.08C81.9221 41.9733 82.0354 41.8933 82.0888 41.84C82.0888 41.84 82.1221 41.8267 82.1888 41.8C82.2688 41.76 82.3354 41.7133 82.3888 41.66C82.6554 41.5533 82.9421 41.5333 83.2488 41.6C83.5688 41.6667 83.8221 41.7867 84.0088 41.96C84.2754 42.2933 84.4754 42.7067 84.6088 43.2C84.7554 43.6933 84.7354 44.1733 84.5488 44.64C84.5221 44.7067 84.4621 44.82 84.3688 44.98C84.2888 45.1267 84.2088 45.2667 84.1288 45.4C84.0488 45.52 84.0088 45.58 84.0088 45.58C83.7021 46.06 83.3621 46.46 82.9888 46.78C82.6288 47.1 82.2354 47.38 81.8088 47.62C81.6754 47.7133 81.4888 47.8 81.2487 47.88C81.0221 47.96 80.8088 48.02 80.6088 48.06C80.4221 48.1 80.3088 48.1067 80.2688 48.08C80.1221 47.9733 79.9888 47.7467 79.8688 47.4C79.8021 47.5733 79.7354 47.7467 79.6688 47.92C79.6154 48.08 79.5821 48.1867 79.5688 48.24C79.5554 48.3333 79.5421 48.4133 79.5288 48.48C79.5154 48.5333 79.4821 48.58 79.4288 48.62C79.4288 48.62 79.4221 48.6467 79.4088 48.7C79.3954 48.7533 79.3488 48.8333 79.2688 48.94C79.1354 49.3267 79.0288 49.6267 78.9488 49.84C78.8688 50.0667 78.8021 50.2467 78.7488 50.38C78.7088 50.5267 78.6688 50.68 78.6288 50.84C78.6021 51.2 78.5154 51.58 78.3688 51.98C78.2354 52.38 78.0421 52.62 77.7888 52.7ZM80.7688 46.2C80.8221 46.1733 80.9154 46.1267 81.0488 46.06C81.1954 45.9933 81.3554 45.9133 81.5288 45.82C81.7021 45.7133 81.8621 45.6133 82.0088 45.52C82.1688 45.4133 82.2821 45.32 82.3488 45.24C82.4554 45.12 82.5154 45.0267 82.5288 44.96C82.5421 44.88 82.5754 44.7533 82.6288 44.58C82.6688 44.4733 82.7154 44.3533 82.7688 44.22C82.8221 44.0867 82.8688 43.96 82.9088 43.84C82.9621 43.7333 82.9821 43.6267 82.9688 43.52C82.9688 43.4 82.9288 43.3 82.8488 43.22C82.7954 43.2067 82.6688 43.2267 82.4688 43.28C82.2821 43.3333 82.0621 43.44 81.8088 43.6C81.5688 43.76 81.3288 43.9933 81.0888 44.3C80.8088 44.66 80.6221 44.9867 80.5288 45.28C80.4354 45.56 80.4154 45.7867 80.4688 45.96C80.5221 46.12 80.6221 46.2 80.7688 46.2ZM86.6473 53.76C86.594 53.7733 86.514 53.7533 86.4073 53.7C86.314 53.6467 86.234 53.5533 86.1673 53.42C86.1007 53.2867 86.0807 53.1133 86.1073 52.9C86.054 52.7133 86.0607 52.48 86.1273 52.2C86.2073 51.9333 86.374 51.5333 86.6273 51C86.7607 50.7867 86.8807 50.5333 86.9873 50.24C87.1073 49.9467 87.2407 49.6533 87.3873 49.36C87.454 49.24 87.5673 49.0333 87.7273 48.74C87.9007 48.4467 88.0873 48.1 88.2873 47.7C88.5007 47.2867 88.694 46.86 88.8673 46.42C88.5207 46.78 88.2207 47.12 87.9673 47.44C87.7273 47.7467 87.5073 47.9933 87.3073 48.18C87.1207 48.3533 86.9207 48.4333 86.7073 48.42C86.534 48.38 86.3273 48.2667 86.0873 48.08C85.8473 47.8933 85.694 47.6867 85.6273 47.46C85.574 47.1667 85.554 46.7933 85.5673 46.34C85.594 45.8867 85.6807 45.2 85.8273 44.28C85.934 43.8267 85.9807 43.48 85.9673 43.24C85.9673 42.9867 85.934 42.8 85.8673 42.68C85.8007 42.56 85.714 42.4533 85.6073 42.36C85.434 42.2 85.4207 42.0267 85.5673 41.84C85.714 41.6533 85.8807 41.5133 86.0673 41.42C86.3473 41.3533 86.5673 41.34 86.7273 41.38C86.9007 41.4067 87.074 41.52 87.2473 41.72C87.354 41.8933 87.4607 42.08 87.5673 42.28C87.674 42.48 87.7273 42.7667 87.7273 43.14C87.7273 43.3 87.7207 43.48 87.7073 43.68C87.694 43.8667 87.6807 44.04 87.6673 44.2C87.654 44.36 87.6407 44.4867 87.6273 44.58C87.494 45.0733 87.374 45.5 87.2673 45.86C87.1607 46.22 87.1407 46.4 87.2073 46.4C87.474 46.1867 87.7007 45.98 87.8873 45.78C88.0873 45.58 88.3007 45.34 88.5273 45.06C88.754 44.78 89.034 44.4133 89.3673 43.96C89.4873 43.7333 89.6073 43.5133 89.7273 43.3C89.8473 43.0867 89.9473 42.8667 90.0273 42.64C90.1073 42.4667 90.214 42.2867 90.3473 42.1C90.4807 41.9 90.574 41.7933 90.6273 41.78C90.694 41.7533 90.7873 41.76 90.9073 41.8C91.0273 41.84 91.1407 41.8867 91.2473 41.94C91.3673 41.98 91.4273 42.0133 91.4273 42.04C91.4407 42.0533 91.5073 42.0667 91.6273 42.08C91.7473 42.0933 91.8673 42.1067 91.9873 42.12C92.1073 42.12 92.1673 42.14 92.1673 42.18C92.1673 42.2067 92.1273 42.3067 92.0473 42.48C91.9807 42.6533 91.9007 42.8467 91.8073 43.06C91.714 43.2733 91.6273 43.4667 91.5473 43.64C91.4807 43.8 91.454 43.8933 91.4673 43.92C91.494 43.9467 91.474 44.0467 91.4073 44.22C91.3407 44.38 91.2607 44.56 91.1673 44.76C91.0873 44.96 91.014 45.14 90.9473 45.3C90.814 45.74 90.6607 46.18 90.4873 46.62C90.314 47.0467 90.1073 47.4733 89.8673 47.9C89.7873 48.06 89.6673 48.3067 89.5073 48.64C89.3607 48.9733 89.214 49.3 89.0673 49.62C88.934 49.9533 88.8273 50.2067 88.7473 50.38C88.694 50.4867 88.614 50.6533 88.5073 50.88C88.414 51.12 88.3073 51.38 88.1873 51.66C88.0807 51.94 87.974 52.2 87.8673 52.44C87.7607 52.6933 87.6807 52.8867 87.6273 53.02C87.6007 53.2733 87.5407 53.46 87.4473 53.58C87.3273 53.7 87.1607 53.76 86.9473 53.76C86.7473 53.76 86.6473 53.76 86.6473 53.76ZM101.124 49.98C101.07 49.98 100.95 49.9667 100.764 49.94C100.577 49.9267 100.357 49.8867 100.104 49.82C99.8638 49.7533 99.6371 49.6533 99.4238 49.52C99.2104 49.4 99.0504 49.2333 98.9438 49.02C98.8504 48.9 98.7038 48.7333 98.5038 48.52C98.3038 48.3067 98.1304 48.1133 97.9838 47.94C97.4904 47.4467 97.0971 47.06 96.8038 46.78C96.5238 46.5 96.2838 46.2133 96.0838 45.92C95.9238 45.76 95.7838 45.5733 95.6638 45.36C95.5438 45.1333 95.4304 44.9333 95.3238 44.76C95.2304 44.5733 95.1304 44.4667 95.0238 44.44C94.9571 44.4933 94.8971 44.5733 94.8438 44.68C94.7904 44.7867 94.7438 44.9533 94.7038 45.18C94.6104 45.38 94.5238 45.6267 94.4438 45.92C94.3638 46.2133 94.3038 46.44 94.2638 46.6C94.1571 46.84 94.0704 47.08 94.0038 47.32C93.9504 47.5467 93.8971 47.7467 93.8438 47.92C93.7904 48.0933 93.7371 48.2333 93.6838 48.34C93.6438 48.4467 93.5971 48.5267 93.5438 48.58C93.5438 48.58 93.5238 48.6733 93.4838 48.86C93.4438 49.0333 93.4038 49.2 93.3638 49.36C93.2304 50.0133 93.0571 50.3467 92.8438 50.36C92.6438 50.3867 92.3704 50.2533 92.0238 49.96C91.9304 49.7867 91.8171 49.6133 91.6838 49.44C91.5504 49.2667 91.4838 49.1533 91.4838 49.1C91.4838 49.1 91.5238 48.9867 91.6038 48.76C91.6838 48.52 91.7704 48.24 91.8638 47.92C91.9304 47.6933 92.0238 47.4 92.1438 47.04C92.2771 46.6667 92.4104 46.2733 92.5438 45.86C92.6771 45.4333 92.8038 45.0267 92.9238 44.64C93.0438 44.24 93.1371 43.9 93.2038 43.62C93.2571 43.5667 93.2837 43.5133 93.2837 43.46C93.2971 43.4067 93.3038 43.3333 93.3038 43.24C93.3304 43.16 93.3971 42.9733 93.5038 42.68C93.6104 42.3733 93.7371 42.0333 93.8838 41.66C94.0304 41.2733 94.1704 40.9133 94.3038 40.58C94.4504 40.2333 94.5704 39.9867 94.6638 39.84C94.7171 39.7333 94.7438 39.64 94.7438 39.56C94.7571 39.48 94.7638 39.44 94.7638 39.44C94.7638 39.32 94.8238 39.2467 94.9438 39.22C94.9438 39.1533 94.9438 39.0867 94.9438 39.02C94.9571 38.9533 94.9904 38.8933 95.0438 38.84C95.0838 38.7333 95.1638 38.5267 95.2838 38.22C95.4038 37.9133 95.5238 37.58 95.6438 37.22C95.7771 36.8467 95.8904 36.52 95.9838 36.24C96.0771 35.96 96.1238 35.8067 96.1238 35.78C96.1238 35.7133 96.1438 35.66 96.1838 35.62C96.2238 35.5667 96.2638 35.5133 96.3038 35.46C96.4371 35.3533 96.6171 35.3067 96.8438 35.32C97.0704 35.32 97.2971 35.3667 97.5238 35.46C97.7638 35.5533 97.9371 35.6867 98.0438 35.86C98.0438 35.9133 98.0238 36.0333 97.9838 36.22C97.9438 36.4067 97.8771 36.6133 97.7838 36.84C97.6904 37.0667 97.6038 37.2667 97.5238 37.44C97.4438 37.6133 97.4038 37.7 97.4038 37.7C97.4038 37.7 97.3438 37.8867 97.2238 38.26C97.1038 38.62 96.9304 39.1 96.7038 39.7C96.4371 40.2467 96.2171 40.74 96.0438 41.18C95.8838 41.6067 95.8304 41.8467 95.8838 41.9C95.8838 41.9 96.0438 41.7667 96.3638 41.5C96.6971 41.22 97.0771 40.8733 97.5038 40.46C97.8504 40.1133 98.2038 39.78 98.5638 39.46C98.9371 39.1267 99.3371 38.8067 99.7638 38.5C100.377 38.0867 100.837 37.78 101.144 37.58C101.464 37.3667 101.704 37.2267 101.864 37.16C102.024 37.08 102.177 37.04 102.324 37.04C102.497 36.9733 102.61 36.9667 102.664 37.02C102.717 37.06 102.824 37.1267 102.984 37.22C103.037 37.3133 103.084 37.4733 103.124 37.7C103.177 37.9133 103.204 38.02 103.204 38.02C103.217 38.1533 103.144 38.3133 102.984 38.5C102.824 38.6867 102.59 38.86 102.284 39.02C101.95 39.2333 101.544 39.4933 101.064 39.8C100.597 40.1067 100.117 40.44 99.6238 40.8C99.1304 41.1467 98.6638 41.4933 98.2238 41.84C97.7838 42.1733 97.4104 42.4733 97.1038 42.74C96.8104 43.0067 96.6371 43.2133 96.5838 43.36C96.4904 43.4533 96.4904 43.5467 96.5838 43.64C96.6904 43.7333 96.8704 43.9 97.1238 44.14C97.3104 44.3667 97.4571 44.5533 97.5638 44.7C97.6704 44.8333 97.7238 44.9 97.7238 44.9C97.7238 44.9267 97.7971 45.02 97.9438 45.18C98.0904 45.34 98.2638 45.52 98.4638 45.72C98.6771 45.92 98.8704 46.1067 99.0438 46.28C99.0971 46.4133 99.2438 46.6 99.4838 46.84C99.7238 47.0667 99.9504 47.3467 100.164 47.68C100.804 48.3467 101.21 48.8933 101.384 49.32C101.557 49.7467 101.47 49.9667 101.124 49.98ZM103.822 48.98C103.502 48.98 103.222 48.8133 102.982 48.48C102.756 48.1333 102.616 47.72 102.562 47.24C102.576 47.1333 102.589 46.98 102.602 46.78C102.629 46.58 102.656 46.3733 102.682 46.16C102.736 45.9067 102.809 45.58 102.902 45.18C102.996 44.78 103.096 44.38 103.202 43.98C103.309 43.5667 103.402 43.2133 103.482 42.92C103.562 42.6133 103.609 42.4333 103.622 42.38C103.702 42.1933 103.882 42.1467 104.162 42.24C104.442 42.3333 104.682 42.5333 104.882 42.84C104.962 42.9467 105.009 43.0733 105.022 43.22C105.049 43.3667 105.029 43.58 104.962 43.86C104.909 44.14 104.802 44.5533 104.642 45.1C104.496 45.6333 104.382 46.0667 104.302 46.4C104.236 46.72 104.209 47.06 104.222 47.42C104.169 48.0333 104.116 48.4533 104.062 48.68C104.009 48.8933 103.929 48.9933 103.822 48.98ZM105.662 40.68C105.609 40.72 105.556 40.74 105.502 40.74C105.462 40.7267 105.389 40.6867 105.282 40.62C105.189 40.6067 105.069 40.5467 104.922 40.44C104.789 40.32 104.669 40.2 104.562 40.08C104.469 39.96 104.422 39.8867 104.422 39.86C104.409 39.7267 104.416 39.5133 104.442 39.22C104.482 38.9267 104.556 38.6533 104.662 38.4C104.782 38.1333 104.942 37.9933 105.142 37.98C105.196 37.98 105.309 38.0067 105.482 38.06C105.669 38.1133 105.862 38.18 106.062 38.26C106.169 38.46 106.269 38.72 106.362 39.04C106.456 39.36 106.462 39.6733 106.382 39.98C106.316 40.2733 106.076 40.5067 105.662 40.68ZM111.808 49.38C111.635 49.42 111.461 49.3733 111.288 49.24C111.128 49.12 111.015 48.9867 110.948 48.84C110.868 48.6267 110.815 48.4267 110.788 48.24C110.775 48.04 110.761 47.8133 110.748 47.56L110.728 46.88L109.908 47.62C109.455 48.0467 109.028 48.3533 108.628 48.54C108.241 48.7133 107.888 48.8 107.568 48.8C107.421 48.7733 107.241 48.68 107.028 48.52C106.828 48.3467 106.641 48.16 106.468 47.96C106.308 47.7467 106.195 47.5733 106.128 47.44C106.048 47.2533 106.021 46.9933 106.048 46.66C106.088 46.3267 106.168 45.96 106.288 45.56C106.421 45.16 106.581 44.7667 106.768 44.38C106.968 43.9933 107.195 43.66 107.448 43.38C107.888 42.7133 108.435 42.3 109.088 42.14C109.741 41.9667 110.321 42.02 110.828 42.3C111.068 42.42 111.241 42.4667 111.348 42.44C111.455 42.4133 111.521 42.3267 111.548 42.18C111.601 41.9667 111.661 41.7667 111.728 41.58C111.795 41.3933 111.888 41.1133 112.008 40.74C112.341 39.7267 112.628 38.9333 112.868 38.36C113.121 37.7867 113.348 37.2867 113.548 36.86C113.695 36.5533 113.841 36.34 113.988 36.22C114.135 36.1 114.261 36.0467 114.368 36.06C114.515 36.06 114.695 36.1133 114.908 36.22C115.135 36.3267 115.281 36.4733 115.348 36.66C115.401 36.78 115.421 36.9067 115.408 37.04C115.408 37.1733 115.368 37.3133 115.288 37.46C115.115 37.78 114.908 38.2067 114.668 38.74C114.441 39.26 114.208 39.8333 113.968 40.46C113.741 41.0867 113.528 41.7067 113.328 42.32C113.128 42.9333 112.961 43.4733 112.828 43.94C112.748 44.2333 112.681 44.6067 112.628 45.06C112.588 45.5133 112.555 45.98 112.528 46.46C112.515 46.9267 112.515 47.3467 112.528 47.72C112.541 48.08 112.561 48.3133 112.588 48.42C112.668 48.6867 112.668 48.8867 112.588 49.02C112.508 49.1533 112.395 49.24 112.248 49.28C112.101 49.3333 111.955 49.3667 111.808 49.38ZM108.508 46.96C108.695 46.8933 108.861 46.8133 109.008 46.72C109.155 46.6267 109.328 46.5067 109.528 46.36C109.928 46.0533 110.215 45.7867 110.388 45.56C110.575 45.3333 110.721 45.0533 110.828 44.72C110.895 44.52 110.895 44.3467 110.828 44.2C110.775 44.0533 110.675 43.9133 110.528 43.78C110.381 43.66 110.195 43.6133 109.968 43.64C109.741 43.6533 109.481 43.7933 109.188 44.06C108.868 44.3533 108.595 44.6933 108.368 45.08C108.141 45.4667 107.955 46.02 107.808 46.74C107.781 46.8733 107.828 46.9667 107.948 47.02C108.068 47.0733 108.255 47.0533 108.508 46.96ZM116.255 49.12C115.828 49.12 115.435 49.0267 115.075 48.84C114.728 48.64 114.448 48.4 114.235 48.12C114.022 47.8267 113.915 47.5467 113.915 47.28C113.915 47.16 113.935 47.0733 113.975 47.02C114.028 46.9667 114.102 46.94 114.195 46.94C114.262 46.9533 114.342 46.9867 114.435 47.04C114.528 47.0933 114.622 47.1533 114.715 47.22C114.928 47.3667 115.162 47.46 115.415 47.5C115.668 47.54 115.895 47.5267 116.095 47.46C116.295 47.38 116.408 47.26 116.435 47.1C116.435 47.0467 116.408 46.9333 116.355 46.76C116.302 46.5867 116.235 46.42 116.155 46.26C115.822 45.7667 115.615 45.3 115.535 44.86C115.455 44.4067 115.402 43.9533 115.375 43.5C115.375 43.3133 115.462 43.1067 115.635 42.88C115.808 42.64 116.022 42.4067 116.275 42.18C116.555 41.94 116.862 41.7133 117.195 41.5C117.542 41.2867 117.882 41.1067 118.215 40.96C118.548 40.8133 118.828 40.7267 119.055 40.7C119.295 40.7 119.548 40.7133 119.815 40.74C120.095 40.7533 120.282 40.8 120.375 40.88C120.562 41.0267 120.735 41.2667 120.895 41.6C121.055 41.9333 121.135 42.2133 121.135 42.44C121.135 42.5467 121.075 42.68 120.955 42.84C120.848 42.9867 120.748 43.1533 120.655 43.34C120.602 43.4333 120.555 43.5333 120.515 43.64C120.475 43.7467 120.428 43.8533 120.375 43.96C120.295 44.1467 120.148 44.2267 119.935 44.2C119.735 44.16 119.548 44.0533 119.375 43.88C119.202 43.6933 119.115 43.48 119.115 43.24C119.115 43.04 119.175 42.8667 119.295 42.72C119.415 42.5733 119.475 42.4733 119.475 42.42C119.475 42.3933 119.462 42.3733 119.435 42.36C119.408 42.3467 119.362 42.34 119.295 42.34C119.202 42.34 119.048 42.38 118.835 42.46C118.635 42.5267 118.422 42.6267 118.195 42.76C117.968 42.8933 117.762 43.0533 117.575 43.24C117.442 43.3867 117.328 43.5467 117.235 43.72C117.155 43.88 117.115 44.0533 117.115 44.24C117.115 44.4267 117.148 44.6467 117.215 44.9C117.295 45.14 117.382 45.34 117.475 45.5C117.502 45.5267 117.542 45.6 117.595 45.72C117.662 45.8267 117.735 45.96 117.815 46.12C118.308 47.1333 118.388 47.8867 118.055 48.38C117.735 48.8733 117.135 49.12 116.255 49.12Z" fill="#56509F"/>
<defs>
<clipPath id="clip0_54_305">
<rect width="48" height="48" fill="white"/>
</clipPath>
</defs>
</svg>
